<?xml version="1.0" encoding="utf-8"?>
<!-- Generator: Adobe Illustrator 15.0.0, SVG Export Plug-In . SVG Version: 6.00 Build 0)  -->
<!DOCTYPE svg PUBLIC "-//W3C//DTD SVG 1.1//EN" "http://www.w3.org/Graphics/SVG/1.1/DTD/svg11.dtd">
<svg version="1.1" id="Capa_1" xmlns="http://www.w3.org/2000/svg" xmlns:xlink="http://www.w3.org/1999/xlink" x="0px" y="0px"
	 width="193px" height="38px" viewBox="0 0 193 38" enable-background="new 0 0 193 38" xml:space="preserve">
<rect x="0.91" y="1.299" fill="#006CD2" width="57" height="35.499"/>
<g id="layer1" transform="translate(-56.348864,-1004.2869)">
	<path id="path3078" fill="#016FD0" d="M63.33,1011.391h44.746v12.81l-2.215,3.461l2.215,3.08v4.006H63.33v-12.727l1.384-1.592
		l-1.384-1.523V1011.391z"/>
	<path id="path3082" fill="#FFFFFF" d="M72.016,1031.225v-7.024h7.438l0.8,1.04l0.823-1.04h27v6.541c0,0-0.707,0.478-1.524,0.483
		H91.604l-0.9-1.107v1.107h-2.948v-1.89c0,0-0.403,0.265-1.274,0.265h-1.004v1.625h-4.463l-0.797-1.063l-0.808,1.063H72.016z"/>
	<path id="path3080" fill="#FFFFFF" d="M63.33,1018.907l1.677-3.911h2.9l0.952,2.191v-2.191h3.606l0.567,1.583l0.549-1.583h16.187
		v0.796c0,0,0.853-0.796,2.25-0.796l5.253,0.019l0.935,2.161v-2.18h3.018l0.831,1.243v-1.243h3.044v7.026h-3.044l-0.796-1.246v1.246
		h-4.434l-0.446-1.109h-1.191l-0.438,1.109h-3.007c-1.204,0-1.973-0.779-1.973-0.779v0.779h-4.534l-0.899-1.109v1.109H67.479
		l-0.445-1.109h-1.187l-0.443,1.109h-2.072v-3.115H63.33z"/>
	<path id="path3046" fill="#016FD0" d="M65.602,1015.862l-2.263,5.261h1.474l0.417-1.054h2.427l0.416,1.054h1.505l-2.26-5.261
		H65.602z M66.437,1017.086l0.741,1.841h-1.482L66.437,1017.086z"/>
	<path id="path3048" fill="#016FD0" d="M69.733,1021.122v-5.261l2.092,0.008l1.218,3.391l1.188-3.399h2.076v5.261h-1.316v-3.877
		l-1.393,3.877h-1.153l-1.398-3.877v3.877H69.733z"/>
	<path id="path3050" fill="#016FD0" d="M77.208,1021.122v-5.261h4.291v1.176h-2.963v0.901h2.894v1.107h-2.894v0.935h2.963v1.142
		H77.208z"/>
	<path id="path3052" fill="#016FD0" d="M82.26,1015.862v5.261h1.314v-1.869h0.553l1.577,1.869h1.606l-1.729-1.938
		c0.71-0.061,1.441-0.67,1.441-1.617c0-1.107-0.869-1.707-1.838-1.707H82.26z M83.575,1017.038h1.503
		c0.36,0,0.623,0.282,0.623,0.553c0,0.351-0.34,0.555-0.604,0.555h-1.523V1017.038z"/>
	<path id="path3054" fill="#016FD0" d="M88.905,1021.122h-1.342v-5.261h1.342V1021.122z"/>
	<path id="path3056" fill="#016FD0" d="M92.088,1021.122h-0.291c-1.401,0-2.252-1.105-2.252-2.609c0-1.541,0.841-2.652,2.611-2.652
		h1.453v1.245h-1.505c-0.72,0-1.228,0.562-1.228,1.419c0,1.018,0.582,1.446,1.419,1.446h0.346L92.088,1021.122z"/>
	<path id="path3058" fill="#016FD0" d="M94.949,1015.862l-2.263,5.261h1.474l0.417-1.054h2.426l0.415,1.054h1.505l-2.261-5.261
		H94.949z M95.785,1017.086l0.74,1.841h-1.48L95.785,1017.086z"/>
	<path id="path3060" fill="#016FD0" d="M99.078,1021.122v-5.261h1.672l2.135,3.305v-3.305h1.315v5.261h-1.619l-2.188-3.393v3.393
		H99.078z"/>
	<path id="path3062" fill="#016FD0" d="M72.916,1030.326v-5.261h4.292v1.178h-2.963v0.898h2.893v1.107h-2.893v0.935h2.963v1.143
		H72.916z"/>
	<path id="path3064" fill="#016FD0" d="M93.942,1030.326v-5.261h4.292v1.178h-2.962v0.898h2.879v1.107h-2.879v0.935h2.962v1.143
		H93.942z"/>
	<path id="path3066" fill="#016FD0" d="M77.373,1030.326l2.091-2.6l-2.139-2.661h1.657l1.274,1.646l1.278-1.646h1.591l-2.11,2.63
		l2.094,2.631h-1.658l-1.238-1.62l-1.206,1.62H77.373z"/>
	<path id="path3068" fill="#016FD0" d="M83.264,1025.067v5.26h1.35v-1.661h1.384c1.171,0,2.057-0.62,2.057-1.831
		c0-0.999-0.694-1.768-1.887-1.768H83.264z M84.614,1026.256h1.456c0.379,0,0.649,0.233,0.649,0.606
		c0,0.354-0.269,0.607-0.652,0.607h-1.453V1026.256z"/>
	<path id="path3072" fill="#016FD0" d="M88.627,1025.065v5.261h1.315v-1.869h0.553l1.577,1.869h1.607l-1.731-1.937
		c0.71-0.062,1.442-0.671,1.442-1.618c0-1.106-0.868-1.706-1.837-1.706H88.627z M89.943,1026.243h1.503
		c0.361,0,0.623,0.281,0.623,0.554c0,0.348-0.341,0.553-0.604,0.553h-1.522V1026.243z"/>
	<path id="path3074" fill="#016FD0" d="M98.843,1030.326v-1.143h2.632c0.389,0,0.559-0.21,0.559-0.442
		c0-0.221-0.168-0.443-0.559-0.443h-1.188c-1.034,0-1.609-0.629-1.609-1.575c0-0.843,0.525-1.655,2.063-1.655h2.561l-0.553,1.184
		h-2.215c-0.423,0-0.553,0.221-0.553,0.434c0,0.218,0.161,0.458,0.484,0.458h1.246c1.152,0,1.652,0.656,1.652,1.511
		c0,0.92-0.558,1.674-1.715,1.674L98.843,1030.326L98.843,1030.326z"/>
	<path id="path3076" fill="#016FD0" d="M103.67,1030.326v-1.143h2.632c0.389,0,0.557-0.21,0.557-0.442
		c0-0.221-0.168-0.443-0.557-0.443h-1.191c-1.033,0-1.609-0.629-1.609-1.575c0-0.843,0.528-1.655,2.063-1.655h2.562l-0.554,1.184
		h-2.214c-0.424,0-0.554,0.221-0.554,0.434c0,0.218,0.161,0.458,0.484,0.458h1.248c1.151,0,1.65,0.656,1.65,1.511
		c0,0.92-0.557,1.674-1.714,1.674L103.67,1030.326L103.67,1030.326z"/>
</g>
<g id="layer1_1_" transform="translate(-334.55043,-538.36598)">
	<g id="g10267" transform="matrix(4.9846856,0,0,-4.9846856,-1470.1185,1039.6264)">
		<g id="g49">
			<g>
				<defs>
					<path id="SVGID_1_" d="M382.904,97.432c-0.007-0.532,0.474-0.828,0.836-1.005c0.372-0.181,0.497-0.297,0.496-0.459
						c-0.003-0.248-0.297-0.358-0.571-0.361c-0.48-0.008-0.759,0.129-0.981,0.233l-0.173-0.809c0.223-0.102,0.635-0.192,1.062-0.196
						c1.003,0,1.659,0.495,1.663,1.263c0.004,0.974-1.348,1.028-1.338,1.464c0.003,0.132,0.129,0.273,0.406,0.309
						c0.136,0.018,0.513,0.032,0.942-0.165l0.168,0.783c-0.23,0.084-0.526,0.164-0.894,0.164
						C383.574,98.653,382.91,98.15,382.904,97.432 M387.025,98.585c-0.183,0-0.338-0.107-0.407-0.271l-1.433-3.421h1.003
						l0.199,0.551h1.225l0.116-0.551h0.883l-0.771,3.692H387.025 M387.165,97.587l0.29-1.386h-0.792L387.165,97.587 M381.689,98.585
						l-0.791-3.692h0.955l0.79,3.692H381.689 M380.276,98.585l-0.994-2.513l-0.402,2.137c-0.047,0.238-0.234,0.376-0.441,0.376
						h-1.625l-0.023-0.107c0.334-0.072,0.713-0.19,0.942-0.314c0.141-0.076,0.181-0.143,0.227-0.324l0.762-2.946h1.01l1.547,3.692
						H380.276"/>
				</defs>
				<clipPath id="SVGID_2_">
					<use xlink:href="#SVGID_1_"  overflow="visible"/>
				</clipPath>
				<g id="g10269" clip-path="url(#SVGID_2_)">
					<g id="g10275" transform="translate(351.611,96.896)">
						
							<linearGradient id="path10283_1_" gradientUnits="userSpaceOnUse" x1="-27.1258" y1="-85.3737" x2="-27.0077" y2="-85.3737" gradientTransform="matrix(2092.1123 770.4784 770.4784 -2092.1123 122555.1563 -157713.5313)">
							<stop  offset="0" style="stop-color:#222357"/>
							<stop  offset="1" style="stop-color:#254AA5"/>
						</linearGradient>
						<path id="path10283" fill="url(#path10283_1_)" d="M23.943,1.301l11.646,4.289l2.65-7.194l-11.647-4.29"/>
					</g>
				</g>
			</g>
		</g>
	</g>
</g>
<g id="g63" transform="translate(-0.84886368,-1.9416651)">
	<path id="path53" fill="#231F20" d="M157.738,37.572v-2.224c0.051-0.728-0.498-1.356-1.224-1.409
		c-0.057-0.004-0.112-0.005-0.169-0.002c-0.498-0.028-0.976,0.211-1.244,0.633c-0.248-0.409-0.696-0.65-1.175-0.633
		c-0.411-0.018-0.809,0.182-1.035,0.528v-0.438h-0.772v3.544h0.779v-1.951c-0.062-0.454,0.256-0.873,0.709-0.937
		c0.055-0.005,0.105-0.009,0.158-0.005c0.511,0,0.772,0.335,0.772,0.936v1.97h0.778v-1.964c-0.061-0.456,0.261-0.874,0.718-0.937
		c0.049-0.005,0.098-0.009,0.148-0.005c0.526,0,0.78,0.335,0.78,0.936v1.97L157.738,37.572z M169.255,34.03h-1.268v-1.075h-0.779
		v1.075h-0.704v0.704h0.717v1.63c0,0.823,0.32,1.313,1.232,1.313c0.342,0.002,0.675-0.094,0.964-0.273l-0.224-0.66
		c-0.207,0.121-0.44,0.19-0.682,0.199c-0.37,0-0.51-0.237-0.51-0.593v-1.615h1.259L169.255,34.03z M175.831,33.94
		c-0.383-0.011-0.74,0.187-0.935,0.521v-0.43h-0.763v3.544h0.771v-1.988c0-0.584,0.252-0.91,0.741-0.91
		c0.165-0.004,0.328,0.025,0.48,0.089l0.238-0.741c-0.175-0.063-0.361-0.097-0.548-0.097L175.831,33.94z M165.89,34.312
		c-0.438-0.26-0.939-0.387-1.445-0.372c-0.898,0-1.485,0.432-1.485,1.138c0,0.576,0.432,0.934,1.224,1.044l0.37,0.053
		c0.423,0.058,0.624,0.171,0.624,0.37c0,0.273-0.283,0.43-0.809,0.43c-0.423,0.013-0.838-0.12-1.181-0.37l-0.368,0.603
		c0.447,0.312,0.986,0.473,1.532,0.458c1.024,0,1.616-0.482,1.616-1.156c0-0.677-0.467-0.949-1.237-1.062l-0.37-0.051
		c-0.333-0.045-0.6-0.112-0.6-0.348c0-0.239,0.252-0.417,0.676-0.417c0.389,0.005,0.772,0.108,1.108,0.305L165.89,34.312z
		 M186.537,33.94c-0.382-0.011-0.739,0.187-0.932,0.521v-0.43h-0.766v3.544h0.771v-1.988c0-0.584,0.253-0.91,0.741-0.91
		c0.167-0.004,0.33,0.025,0.484,0.089l0.235-0.741c-0.176-0.063-0.36-0.097-0.548-0.097L186.537,33.94z M176.606,35.793
		c-0.036,0.988,0.736,1.819,1.725,1.855c0.056,0.002,0.11,0.002,0.167-0.002c0.462,0.023,0.917-0.127,1.274-0.421l-0.37-0.624
		c-0.267,0.203-0.593,0.313-0.927,0.317c-0.627-0.051-1.092-0.599-1.043-1.226c0.046-0.555,0.488-0.997,1.043-1.041
		c0.334,0.004,0.66,0.114,0.927,0.319l0.37-0.624c-0.357-0.294-0.813-0.444-1.274-0.421c-0.989-0.056-1.836,0.696-1.889,1.685
		c-0.003,0.059-0.003,0.112-0.001,0.169v0.013H176.606z M183.824,35.793V34.03h-0.771v0.43c-0.265-0.343-0.678-0.533-1.111-0.521
		c-1.023,0-1.852,0.831-1.852,1.854c0,1.024,0.828,1.854,1.852,1.854c0.434,0.017,0.847-0.176,1.111-0.521v0.434h0.771V35.793z
		 M180.956,35.793c0.034-0.589,0.542-1.041,1.133-1.007c0.59,0.035,1.041,0.543,1.007,1.132c-0.034,0.566-0.499,1.007-1.064,1.009
		c-0.588,0.009-1.07-0.461-1.077-1.051C180.954,35.85,180.956,35.822,180.956,35.793 M171.653,33.94
		c-1.024,0.017-1.841,0.856-1.828,1.879c0.015,1.024,0.856,1.843,1.879,1.828c0.535,0.027,1.06-0.144,1.473-0.482l-0.37-0.569
		c-0.292,0.233-0.654,0.364-1.03,0.368c-0.529,0.047-0.999-0.338-1.061-0.867h2.634V35.8c0-1.111-0.691-1.852-1.686-1.852
		L171.653,33.94z M171.653,34.629c0.484-0.011,0.885,0.375,0.896,0.859v0.002h-1.852c0.026-0.495,0.445-0.878,0.94-0.861H171.653z
		 M190.968,35.8v-3.193h-0.74v1.852c-0.267-0.343-0.68-0.533-1.113-0.521c-1.022,0-1.852,0.833-1.852,1.855
		c0,1.024,0.829,1.854,1.852,1.854c0.434,0.015,0.847-0.178,1.113-0.522v0.434h0.74V35.8z M192.256,37.057
		c0.047,0,0.096,0.011,0.14,0.027c0.041,0.017,0.081,0.04,0.115,0.072c0.031,0.033,0.059,0.071,0.076,0.113
		c0.038,0.087,0.038,0.187,0,0.273c-0.018,0.042-0.045,0.08-0.076,0.112c-0.034,0.031-0.074,0.057-0.115,0.072
		c-0.046,0.021-0.093,0.031-0.14,0.031c-0.144-0.002-0.276-0.085-0.334-0.216c-0.038-0.087-0.038-0.185,0-0.273
		c0.018-0.042,0.045-0.08,0.078-0.113c0.032-0.032,0.072-0.058,0.114-0.072c0.049-0.02,0.102-0.029,0.152-0.027H192.256z
		 M192.256,37.685c0.034,0,0.072-0.008,0.106-0.021c0.031-0.015,0.06-0.033,0.085-0.059c0.097-0.105,0.097-0.265,0-0.372
		c-0.025-0.023-0.054-0.043-0.085-0.058c-0.034-0.015-0.072-0.021-0.106-0.021c-0.038,0-0.075,0.007-0.109,0.021
		c-0.032,0.015-0.062,0.034-0.087,0.058c-0.096,0.107-0.096,0.267,0,0.372c0.023,0.025,0.055,0.046,0.087,0.059
		c0.038,0.016,0.08,0.023,0.12,0.021H192.256z M192.276,37.244c0.034,0,0.069,0.007,0.098,0.028
		c0.023,0.021,0.035,0.049,0.033,0.078c0,0.025-0.01,0.049-0.025,0.067c-0.022,0.02-0.049,0.03-0.078,0.032l0.106,0.122h-0.085
		l-0.1-0.122h-0.032v0.122h-0.071v-0.325L192.276,37.244z M192.196,37.308v0.089h0.08c0.015,0.003,0.031,0.003,0.045,0
		c0.006-0.012,0.006-0.024,0-0.035c0.006-0.009,0.006-0.021,0-0.032c-0.014-0.006-0.028-0.006-0.045,0L192.196,37.308z
		 M188.117,35.8c0.036-0.589,0.542-1.04,1.134-1.006c0.591,0.034,1.04,0.542,1.006,1.133c-0.032,0.564-0.498,1.005-1.064,1.009
		c-0.588,0.007-1.07-0.463-1.077-1.05C188.115,35.857,188.115,35.827,188.117,35.8 M162.087,35.8v-1.77h-0.773v0.43
		c-0.265-0.343-0.678-0.533-1.111-0.521c-1.024,0-1.852,0.831-1.852,1.854c0,1.024,0.829,1.854,1.852,1.854
		c0.434,0.017,0.847-0.176,1.111-0.521v0.434h0.773V35.8z M159.218,35.8c0.034-0.589,0.54-1.04,1.132-1.006
		c0.591,0.034,1.04,0.542,1.006,1.133c-0.032,0.564-0.5,1.005-1.064,1.009c-0.588,0.011-1.071-0.455-1.084-1.045
		c0-0.028,0-0.058,0.003-0.091H159.218z"/>
	<rect id="rect55" x="165.634" y="7.027" fill="#FF5F00" width="11.675" height="20.983"/>
	<path id="path57" fill="#EB001B" d="M166.375,17.518c-0.005-4.095,1.875-7.965,5.097-10.493
		c-5.795-4.554-14.184-3.548-18.737,2.247c-4.554,5.794-3.547,14.184,2.247,18.738c4.838,3.803,11.651,3.803,16.49,0
		C168.25,25.482,166.372,21.615,166.375,17.518"/>
	<path id="path59" fill="#F79E1B" d="M193.063,17.518c-0.002,7.371-5.976,13.346-13.344,13.346c-2.99,0-5.896-1.007-8.247-2.854
		c5.794-4.554,6.8-12.943,2.246-18.738c-0.656-0.836-1.41-1.588-2.246-2.246c5.792-4.555,14.181-3.551,18.736,2.242
		c1.848,2.352,2.853,5.255,2.853,8.248v0.002H193.063z"/>
	<path id="path61" fill="#F79E1B" d="M191.786,25.786v-0.432h0.176v-0.089h-0.439v0.089h0.188v0.432H191.786z M192.644,25.786
		v-0.521h-0.133l-0.155,0.372l-0.156-0.372h-0.12v0.521h0.099v-0.39l0.143,0.337h0.101l0.145-0.337v0.394L192.644,25.786z"/>
</g>
</svg>
