<?xml version="1.0" encoding="utf-8"?>
<!-- Generator: Adobe Illustrator 15.0.0, SVG Export Plug-In . SVG Version: 6.00 Build 0)  -->
<!DOCTYPE svg PUBLIC "-//W3C//DTD SVG 1.1//EN" "http://www.w3.org/Graphics/SVG/1.1/DTD/svg11.dtd">
<svg version="1.1" id="Capa_1" xmlns="http://www.w3.org/2000/svg" xmlns:xlink="http://www.w3.org/1999/xlink" x="0px" y="0px"
	 width="272.858px" height="38px" viewBox="0 0 272.858 38" enable-background="new 0 0 272.858 38" xml:space="preserve">
<rect x="0.91" y="1.299" fill="#006CD2" width="57" height="35.499"/>
<g id="layer1" transform="translate(-56.348864,-1004.2869)">
	<path id="path3078" fill="#016FD0" d="M63.33,1011.391h44.746v12.81l-2.215,3.461l2.215,3.08v4.006H63.33v-12.727l1.385-1.592
		l-1.385-1.523V1011.391z"/>
	<path id="path3082" fill="#FFFFFF" d="M72.016,1031.224v-7.023h7.438l0.801,1.04l0.822-1.04h27v6.541c0,0-0.707,0.479-1.523,0.482
		H91.604l-0.9-1.106v1.106h-2.947v-1.891c0,0-0.403,0.266-1.274,0.266h-1.004v1.625h-4.463l-0.797-1.063l-0.809,1.063H72.016
		L72.016,1031.224z"/>
	<path id="path3080" fill="#FFFFFF" d="M63.33,1018.907l1.678-3.911h2.899l0.952,2.191v-2.191h3.606l0.566,1.583l0.549-1.583h16.188
		v0.796c0,0,0.853-0.796,2.25-0.796l5.253,0.019l0.935,2.161v-2.18h3.019l0.831,1.243v-1.243h3.044v7.026h-3.044l-0.796-1.246v1.246
		h-4.435l-0.445-1.109h-1.191l-0.438,1.109h-3.008c-1.204,0-1.973-0.779-1.973-0.779v0.779h-4.534l-0.898-1.109v1.109H67.479
		l-0.445-1.109h-1.187l-0.443,1.109h-2.072v-3.115H63.33z"/>
	<path id="path3046" fill="#016FD0" d="M65.602,1015.862l-2.263,5.261h1.474l0.417-1.054h2.427l0.416,1.054h1.505l-2.26-5.261
		H65.602z M66.437,1017.086l0.741,1.841h-1.482L66.437,1017.086z"/>
	<path id="path3048" fill="#016FD0" d="M69.733,1021.122v-5.261l2.092,0.008l1.219,3.391l1.188-3.399h2.076v5.261h-1.316v-3.877
		l-1.393,3.877h-1.153l-1.397-3.877v3.877H69.733z"/>
	<path id="path3050" fill="#016FD0" d="M77.208,1021.122v-5.261h4.29v1.176h-2.963v0.901h2.895v1.107h-2.895v0.935h2.963v1.142
		H77.208L77.208,1021.122z"/>
	<path id="path3052" fill="#016FD0" d="M82.26,1015.862v5.261h1.313v-1.869h0.554l1.576,1.869h1.606l-1.729-1.938
		c0.711-0.061,1.441-0.67,1.441-1.617c0-1.107-0.869-1.707-1.838-1.707L82.26,1015.862L82.26,1015.862z M83.575,1017.038h1.503
		c0.36,0,0.623,0.282,0.623,0.553c0,0.351-0.34,0.555-0.604,0.555h-1.523L83.575,1017.038L83.575,1017.038z"/>
	<path id="path3054" fill="#016FD0" d="M88.905,1021.122h-1.342v-5.261h1.342V1021.122z"/>
	<path id="path3056" fill="#016FD0" d="M92.088,1021.122h-0.291c-1.401,0-2.252-1.105-2.252-2.609c0-1.541,0.841-2.652,2.61-2.652
		h1.453v1.245h-1.505c-0.72,0-1.228,0.562-1.228,1.419c0,1.018,0.582,1.446,1.419,1.446h0.346L92.088,1021.122z"/>
	<path id="path3058" fill="#016FD0" d="M94.949,1015.862l-2.263,5.261h1.474l0.417-1.054h2.427l0.415,1.054h1.505l-2.262-5.261
		H94.949z M95.785,1017.086l0.74,1.841h-1.479L95.785,1017.086z"/>
	<path id="path3060" fill="#016FD0" d="M99.078,1021.122v-5.261h1.673l2.135,3.305v-3.305h1.314v5.261h-1.619l-2.188-3.393v3.393
		H99.078z"/>
	<path id="path3062" fill="#016FD0" d="M72.916,1030.326v-5.261h4.293v1.178h-2.964v0.897h2.894v1.106h-2.894v0.937h2.964v1.143
		H72.916z"/>
	<path id="path3064" fill="#016FD0" d="M93.942,1030.326v-5.261h4.292v1.178h-2.962v0.897h2.879v1.106h-2.879v0.937h2.962v1.143
		H93.942z"/>
	<path id="path3066" fill="#016FD0" d="M77.373,1030.326l2.092-2.6l-2.14-2.661h1.657l1.274,1.646l1.277-1.646h1.592l-2.11,2.63
		l2.094,2.631h-1.658l-1.237-1.62l-1.206,1.62H77.373z"/>
	<path id="path3068" fill="#016FD0" d="M83.264,1025.067v5.26h1.35v-1.661h1.384c1.172,0,2.058-0.619,2.058-1.831
		c0-0.999-0.694-1.768-1.887-1.768H83.264z M84.614,1026.256h1.456c0.379,0,0.649,0.233,0.649,0.606c0,0.354-0.27,0.606-0.652,0.606
		h-1.453V1026.256z"/>
	<path id="path3072" fill="#016FD0" d="M88.627,1025.065v5.261h1.314v-1.869h0.553l1.577,1.869h1.607l-1.731-1.938
		c0.71-0.063,1.442-0.67,1.442-1.617c0-1.106-0.868-1.707-1.837-1.707L88.627,1025.065L88.627,1025.065z M89.943,1026.243h1.503
		c0.361,0,0.623,0.281,0.623,0.554c0,0.35-0.341,0.553-0.604,0.553h-1.522V1026.243z"/>
	<path id="path3074" fill="#016FD0" d="M98.843,1030.326v-1.143h2.632c0.389,0,0.559-0.21,0.559-0.442
		c0-0.221-0.168-0.442-0.559-0.442h-1.188c-1.033,0-1.608-0.629-1.608-1.574c0-0.844,0.524-1.655,2.063-1.655h2.562l-0.554,1.185
		h-2.215c-0.423,0-0.553,0.221-0.553,0.435c0,0.218,0.161,0.458,0.484,0.458h1.246c1.151,0,1.651,0.656,1.651,1.511
		c0,0.92-0.558,1.674-1.715,1.674L98.843,1030.326L98.843,1030.326z"/>
	<path id="path3076" fill="#016FD0" d="M103.67,1030.326v-1.143h2.632c0.389,0,0.557-0.21,0.557-0.442
		c0-0.221-0.168-0.442-0.557-0.442h-1.191c-1.033,0-1.608-0.629-1.608-1.574c0-0.844,0.527-1.655,2.063-1.655h2.563l-0.555,1.185
		h-2.214c-0.424,0-0.554,0.221-0.554,0.435c0,0.218,0.161,0.458,0.483,0.458h1.248c1.151,0,1.65,0.656,1.65,1.511
		c0,0.92-0.557,1.674-1.714,1.674L103.67,1030.326L103.67,1030.326z"/>
</g>
<g id="layer1_1_" transform="translate(-334.55043,-538.36598)">
	<g id="g10267" transform="matrix(4.9846856,0,0,-4.9846856,-1470.1185,1039.6264)">
		<g id="g49">
			<g>
				<g>
					<g>
						<defs>
							<path id="SVGID_1_" d="M382.904,97.432c-0.007-0.532,0.474-0.828,0.836-1.005c0.372-0.181,0.497-0.297,0.496-0.459
								c-0.003-0.248-0.297-0.358-0.571-0.361c-0.48-0.008-0.759,0.129-0.981,0.233l-0.173-0.809
								c0.223-0.102,0.635-0.192,1.062-0.196c1.003,0,1.659,0.495,1.663,1.263c0.004,0.974-1.348,1.028-1.338,1.464
								c0.003,0.132,0.129,0.273,0.406,0.309c0.136,0.018,0.513,0.032,0.942-0.165l0.168,0.783c-0.23,0.084-0.526,0.164-0.894,0.164
								C383.574,98.653,382.91,98.15,382.904,97.432 M387.025,98.585c-0.183,0-0.338-0.107-0.407-0.271l-1.433-3.421h1.003
								l0.199,0.551h1.225l0.116-0.551h0.883l-0.771,3.692H387.025 M387.165,97.587l0.29-1.386h-0.792L387.165,97.587
								 M381.689,98.585l-0.791-3.692h0.955l0.79,3.692H381.689 M380.276,98.585l-0.994-2.513l-0.402,2.137
								c-0.047,0.238-0.234,0.376-0.441,0.376h-1.625l-0.023-0.107c0.334-0.072,0.713-0.19,0.942-0.314
								c0.141-0.076,0.181-0.143,0.227-0.324l0.762-2.946h1.01l1.547,3.692L380.276,98.585"/>
						</defs>
						<clipPath id="SVGID_2_">
							<use xlink:href="#SVGID_1_"  overflow="visible"/>
						</clipPath>
						<g id="g10269" clip-path="url(#SVGID_2_)">
							<g id="g10275" transform="translate(351.611,96.896)">
								
									<linearGradient id="path10283_1_" gradientUnits="userSpaceOnUse" x1="6.8988" y1="-28.0581" x2="7.0277" y2="-28.0581" gradientTransform="matrix(51982.8984 19144.1465 19144.1465 -51982.8984 178544.1875 -1590603.25)">
									<stop  offset="0" style="stop-color:#222357"/>
									<stop  offset="1" style="stop-color:#254AA5"/>
								</linearGradient>
								<path id="path10283" fill="url(#path10283_1_)" d="M23.943,1.301L35.589,5.59l2.65-7.194l-11.647-4.29"/>
							</g>
						</g>
					</g>
				</g>
			</g>
		</g>
	</g>
</g>
<g id="g63" transform="translate(-0.84886368,-1.9416651)">
	<path id="path53" fill="#231F20" d="M157.738,37.572v-2.226c0.051-0.729-0.498-1.354-1.224-1.407
		c-0.059-0.006-0.112-0.007-0.169-0.004c-0.498-0.027-0.978,0.213-1.244,0.635c-0.248-0.41-0.695-0.65-1.175-0.635
		c-0.411-0.018-0.811,0.184-1.035,0.528v-0.438h-0.772v3.543h0.779v-1.951c-0.062-0.453,0.256-0.873,0.709-0.937
		c0.055-0.005,0.105-0.009,0.158-0.005c0.512,0,0.771,0.335,0.771,0.936v1.972h0.779v-1.966c-0.062-0.455,0.26-0.873,0.717-0.937
		c0.049-0.005,0.1-0.009,0.148-0.005c0.524,0,0.78,0.335,0.78,0.936v1.972L157.738,37.572z M169.255,34.029h-1.269v-1.074h-0.778
		v1.074h-0.704v0.705h0.717v1.629c0,0.822,0.32,1.313,1.23,1.313c0.344,0.002,0.677-0.094,0.966-0.271l-0.226-0.66
		c-0.207,0.121-0.438,0.188-0.682,0.199c-0.37,0-0.51-0.238-0.51-0.595v-1.614h1.259L169.255,34.029z M175.831,33.94
		c-0.383-0.011-0.739,0.188-0.936,0.521v-0.43h-0.763v3.543h0.771v-1.987c0-0.584,0.252-0.91,0.741-0.91
		c0.165-0.004,0.328,0.024,0.479,0.089l0.237-0.74c-0.174-0.063-0.359-0.098-0.547-0.098L175.831,33.94z M165.89,34.312
		c-0.438-0.26-0.939-0.387-1.445-0.372c-0.896,0-1.483,0.432-1.483,1.139c0,0.576,0.432,0.935,1.224,1.043l0.37,0.055
		c0.423,0.059,0.624,0.171,0.624,0.37c0,0.272-0.283,0.43-0.811,0.43c-0.422,0.015-0.838-0.118-1.181-0.368l-0.368,0.603
		c0.447,0.312,0.986,0.473,1.532,0.458c1.024,0,1.616-0.482,1.616-1.156c0-0.677-0.467-0.949-1.236-1.063l-0.371-0.051
		c-0.332-0.046-0.6-0.111-0.6-0.349c0-0.239,0.252-0.417,0.676-0.417c0.389,0.005,0.772,0.107,1.108,0.305L165.89,34.312z
		 M186.536,33.94c-0.381-0.011-0.737,0.188-0.932,0.521v-0.43h-0.766v3.543h0.771v-1.987c0-0.584,0.252-0.91,0.74-0.91
		c0.167-0.004,0.33,0.024,0.483,0.089l0.234-0.74c-0.176-0.063-0.359-0.098-0.547-0.098L186.536,33.94z M176.607,35.793
		c-0.037,0.988,0.735,1.818,1.725,1.855c0.057,0.002,0.109,0.002,0.166-0.004c0.464,0.023,0.919-0.127,1.275-0.421l-0.371-0.624
		c-0.267,0.203-0.593,0.313-0.927,0.317c-0.627-0.052-1.092-0.601-1.043-1.228c0.046-0.555,0.488-0.996,1.043-1.041
		c0.334,0.004,0.66,0.114,0.927,0.319l0.371-0.624c-0.356-0.294-0.813-0.443-1.275-0.421c-0.987-0.056-1.836,0.696-1.889,1.685
		c-0.002,0.061-0.002,0.112,0,0.17v0.014L176.607,35.793L176.607,35.793z M183.823,35.793v-1.764h-0.771v0.431
		c-0.266-0.343-0.678-0.533-1.11-0.521c-1.022,0-1.853,0.829-1.853,1.854c0,1.023,0.828,1.854,1.853,1.854
		c0.435,0.018,0.846-0.176,1.11-0.521v0.434h0.771V35.793z M180.956,35.793c0.033-0.59,0.541-1.041,1.134-1.008
		c0.59,0.035,1.041,0.543,1.007,1.133c-0.034,0.566-0.499,1.007-1.063,1.009c-0.588,0.009-1.069-0.461-1.078-1.051
		C180.954,35.85,180.956,35.822,180.956,35.793 M171.654,33.94c-1.023,0.019-1.842,0.856-1.828,1.879
		c0.016,1.024,0.855,1.844,1.879,1.828c0.535,0.027,1.061-0.144,1.474-0.482l-0.37-0.567c-0.292,0.231-0.653,0.364-1.03,0.368
		c-0.528,0.047-0.998-0.338-1.061-0.867h2.634V35.8c0-1.11-0.69-1.853-1.688-1.853L171.654,33.94z M171.654,34.629
		c0.483-0.012,0.885,0.375,0.896,0.859v0.002h-1.854c0.026-0.496,0.445-0.879,0.94-0.861H171.654z M190.968,35.8v-3.192h-0.74v1.853
		c-0.267-0.345-0.68-0.533-1.113-0.521c-1.021,0-1.852,0.832-1.852,1.854s0.829,1.854,1.852,1.854
		c0.436,0.016,0.849-0.179,1.113-0.521v0.434h0.74V35.8z M192.256,37.057c0.047,0,0.096,0.012,0.14,0.027
		c0.041,0.017,0.081,0.039,0.115,0.072c0.031,0.033,0.059,0.069,0.076,0.111c0.038,0.088,0.038,0.188,0,0.273
		c-0.019,0.042-0.045,0.078-0.076,0.111c-0.034,0.03-0.074,0.058-0.115,0.071c-0.046,0.021-0.093,0.031-0.14,0.031
		c-0.145-0.002-0.276-0.085-0.334-0.216c-0.038-0.088-0.038-0.187,0-0.273c0.019-0.042,0.045-0.08,0.078-0.113
		c0.031-0.031,0.07-0.058,0.113-0.07c0.049-0.021,0.103-0.029,0.151-0.027L192.256,37.057L192.256,37.057z M192.256,37.685
		c0.033,0,0.07-0.008,0.105-0.021c0.03-0.016,0.061-0.033,0.084-0.059c0.099-0.105,0.099-0.267,0-0.373
		c-0.023-0.022-0.054-0.043-0.084-0.059c-0.035-0.016-0.072-0.021-0.105-0.021c-0.038,0-0.075,0.006-0.108,0.021
		s-0.063,0.034-0.088,0.059c-0.096,0.106-0.096,0.268,0,0.373c0.023,0.023,0.055,0.045,0.088,0.059
		c0.037,0.016,0.079,0.021,0.119,0.021H192.256z M192.277,37.244c0.033,0,0.068,0.007,0.099,0.026
		c0.022,0.021,0.034,0.05,0.032,0.078c0,0.024-0.01,0.05-0.024,0.067c-0.021,0.02-0.049,0.029-0.078,0.031l0.104,0.121h-0.084
		l-0.101-0.121h-0.032v0.121h-0.07v-0.324H192.277z M192.196,37.308v0.089h0.08c0.016,0.004,0.03,0.004,0.045,0
		c0.006-0.012,0.006-0.023,0-0.035c0.006-0.009,0.006-0.021,0-0.031c-0.015-0.006-0.027-0.006-0.045,0L192.196,37.308z
		 M188.116,35.8c0.037-0.589,0.543-1.04,1.136-1.006c0.591,0.034,1.039,0.542,1.006,1.133c-0.032,0.563-0.498,1.005-1.064,1.009
		c-0.588,0.008-1.07-0.463-1.076-1.05C188.114,35.858,188.114,35.826,188.116,35.8 M162.087,35.8v-1.771h-0.773v0.431
		c-0.265-0.343-0.678-0.533-1.111-0.521c-1.022,0-1.852,0.829-1.852,1.854c0,1.023,0.829,1.854,1.852,1.854
		c0.436,0.018,0.849-0.176,1.111-0.521v0.434h0.773V35.8z M159.218,35.8c0.034-0.589,0.54-1.04,1.132-1.006
		c0.591,0.034,1.04,0.542,1.007,1.133c-0.033,0.563-0.5,1.005-1.063,1.009c-0.589,0.012-1.071-0.455-1.084-1.045
		c0-0.027,0-0.058,0.003-0.091H159.218z"/>
	<rect id="rect55" x="165.634" y="7.027" fill="#FF5F00" width="11.675" height="20.983"/>
	<path id="path57" fill="#EB001B" d="M166.375,17.518c-0.006-4.095,1.875-7.965,5.097-10.493
		c-5.795-4.554-14.185-3.548-18.736,2.247c-4.555,5.794-3.547,14.183,2.246,18.738c4.838,3.803,11.651,3.803,16.49,0
		C168.25,25.483,166.372,21.615,166.375,17.518"/>
	<path id="path59" fill="#F79E1B" d="M193.064,17.518c-0.003,7.371-5.977,13.346-13.345,13.346c-2.989,0-5.896-1.006-8.247-2.854
		c5.794-4.555,6.801-12.943,2.246-18.738c-0.656-0.836-1.41-1.588-2.246-2.246c5.792-4.555,14.182-3.551,18.736,2.242
		c1.848,2.352,2.853,5.255,2.853,8.248v0.002H193.064z"/>
	<path id="path61" fill="#F79E1B" d="M191.786,25.785v-0.433h0.177v-0.089h-0.439v0.089h0.188v0.433H191.786z M192.644,25.785
		v-0.521h-0.133l-0.154,0.372l-0.156-0.372h-0.121v0.521h0.101v-0.391l0.143,0.338h0.103l0.145-0.338v0.395L192.644,25.785z"/>
</g>
<g>
	<path fill-rule="evenodd" clip-rule="evenodd" fill="#63CF82" d="M212.834,12.1c0,4.61,0,9.221,0,13.831
		C212.617,21.625,212.617,16.406,212.834,12.1z"/>
	<path fill-rule="evenodd" clip-rule="evenodd" fill="#63CF82" d="M268.421,12.1c0.217,4.307,0.217,9.525,0,13.831
		C268.421,21.32,268.421,16.71,268.421,12.1z"/>
	<path fill-rule="evenodd" clip-rule="evenodd" fill="#6DE08E" d="M243.629,16.275c-1.455,1.495-1.734-0.578-2.871-0.652
		c-0.817-0.055-1.562,0.653-1.174,1.696c0.33,0.888,2.535,0.636,3.393,1.435c1.764,1.646,1.182,4.828-1.175,5.48
		c-0.17,0.438-0.133,1.085-0.521,1.306c-0.522,0.128-0.783,0.128-1.306,0c-0.232-0.29-0.514-0.53-0.391-1.175
		c-1.732,0.067-3.013-3.434-0.522-3.001c0.427,0.074,1.983,2.19,2.609,0.392c0.712-2.044-2.344-1.502-3.393-2.479
		c-1.721-1.606-0.993-5.223,1.175-5.48c0.17-0.438,0.133-1.085,0.521-1.305c0.522-0.129,0.783-0.129,1.306,0
		c0.232,0.289,0.514,0.53,0.391,1.174C242.738,14.122,243.788,14.593,243.629,16.275z"/>
	<path fill-rule="evenodd" clip-rule="evenodd" fill="#6DE08E" d="M212.834,12.1c0-0.131,0-0.261,0-0.392
		c0.919-0.743,2.097-0.702,3.001-1.174c2.279-1.189,3.171-3.288,4.046-5.872c13.527-0.218,27.966-0.218,41.494,0
		c0.628,1.002,0.671,2.07,1.174,3.001c1.164,2.152,3.14,3.167,5.741,3.914c-0.056,0.273,0.09,0.346,0.131,0.522
		c0,4.61,0,9.221,0,13.831c-0.102,0.116-0.141,0.295-0.131,0.522c-2.614,0.782-4.712,1.799-5.872,4.045
		c-0.455,0.882-0.368,1.966-1.043,2.87c-13.529,0.218-27.966,0.218-41.494,0c-0.903-2.612-1.676-4.499-3.784-5.741
		c-1.089-0.641-3.042-0.525-3.263-1.696C212.834,21.32,212.834,16.71,212.834,12.1z M239.323,9.099
		c-4.888,0.854-7.759,3.725-8.612,8.611c-0.218,0.569-0.217,2.042,0,2.61c0.848,4.893,3.727,7.755,8.612,8.611
		c0.524,0.218,1.953,0.218,2.479,0c5.024-0.804,7.938-3.718,8.742-8.742c0.217-0.481,0.217-1.866,0-2.349
		c-0.776-5.008-3.699-7.87-8.612-8.742C241.364,8.882,239.891,8.882,239.323,9.099z M220.924,22.408
		c4.193-0.366,3.809-7.889-1.174-6.655C215.74,16.746,217.122,22.739,220.924,22.408z M257.591,17.449
		c-2.237,4.743,5.442,6.824,6.394,2.479c0.576-2.634-1.453-4.857-4.176-4.176C258.856,15.992,257.901,16.791,257.591,17.449z"/>
	<path fill-rule="evenodd" clip-rule="evenodd" fill="#5FC77D" d="M208.398,1.009c0.086-1.443,5.259-0.914,7.699-0.914
		c18.783,0,38.245-0.216,56.5,0.261c0.056,0.249,0.28,0.328,0.261,0.653c0,12.004,0,24.009,0,36.014
		c0.02,0.324-0.205,0.403-0.261,0.652c-20.648,0.434-43.154,0.435-63.938,0c-0.056-0.249-0.28-0.328-0.261-0.652
		C208.398,25.018,208.398,13.013,208.398,1.009z M268.421,12.1c-0.041-0.177-0.187-0.249-0.131-0.522
		c-2.602-0.747-4.577-1.762-5.741-3.914c-0.503-0.931-0.546-1.999-1.174-3.001c-13.528-0.218-27.967-0.218-41.494,0
		c-0.875,2.584-1.767,4.683-4.046,5.872c-0.904,0.472-2.082,0.431-3.001,1.174c0,0.131,0,0.261,0,0.392
		c-0.217,4.307-0.217,9.525,0,13.831c0.221,1.171,2.174,1.056,3.263,1.696c2.108,1.242,2.881,3.129,3.784,5.741
		c13.528,0.218,27.965,0.218,41.494,0c0.675-0.904,0.588-1.988,1.043-2.87c1.16-2.246,3.258-3.263,5.872-4.045
		c-0.01-0.228,0.029-0.406,0.131-0.522C268.638,21.625,268.638,16.406,268.421,12.1z"/>
	<path fill-rule="evenodd" clip-rule="evenodd" fill="#5FC77D" d="M230.711,17.71c0.854-4.887,3.725-7.757,8.612-8.611
		c0.869,0,1.739,0,2.608,0c4.913,0.872,7.836,3.734,8.612,8.742c0,0.783,0,1.565,0,2.349c-0.804,5.024-3.718,7.938-8.742,8.742
		c-0.826,0-1.653,0-2.479,0c-4.886-0.856-7.765-3.719-8.612-8.611C230.711,19.45,230.711,18.58,230.711,17.71z M241.671,13.665
		c0.123-0.644-0.158-0.885-0.391-1.174c-0.522-0.129-0.783-0.129-1.306,0c-0.389,0.22-0.352,0.866-0.521,1.305
		c-2.168,0.258-2.896,3.874-1.175,5.48c1.049,0.978,4.104,0.436,3.393,2.479c-0.626,1.799-2.183-0.317-2.609-0.392
		c-2.49-0.433-1.21,3.068,0.522,3.001c-0.123,0.645,0.158,0.885,0.391,1.175c0.522,0.128,0.783,0.128,1.306,0
		c0.389-0.221,0.352-0.867,0.521-1.306c2.356-0.652,2.938-3.835,1.175-5.48c-0.857-0.799-3.063-0.547-3.393-1.435
		c-0.388-1.043,0.356-1.751,1.174-1.696c1.137,0.074,1.416,2.147,2.871,0.652C243.788,14.593,242.738,14.122,241.671,13.665z"/>
	<path fill-rule="evenodd" clip-rule="evenodd" fill="#5FC77D" d="M219.75,15.753c4.982-1.233,5.367,6.289,1.174,6.655
		C217.122,22.739,215.74,16.746,219.75,15.753z"/>
	<path fill-rule="evenodd" clip-rule="evenodd" fill="#5FC77D" d="M259.809,15.753c2.723-0.682,4.752,1.542,4.176,4.176
		c-0.951,4.345-8.631,2.264-6.394-2.479C257.901,16.791,258.856,15.992,259.809,15.753z"/>
	<path fill-rule="evenodd" clip-rule="evenodd" fill="#63CF82" d="M239.323,9.099c0.567-0.217,2.041-0.217,2.608,0
		C241.063,9.099,240.193,9.099,239.323,9.099z"/>
	<path fill-rule="evenodd" clip-rule="evenodd" fill="#63CF82" d="M230.711,17.71c0,0.87,0,1.74,0,2.61
		C230.494,19.752,230.493,18.279,230.711,17.71z"/>
	<path fill-rule="evenodd" clip-rule="evenodd" fill="#63CF82" d="M250.544,17.841c0.217,0.482,0.217,1.867,0,2.349
		C250.544,19.406,250.544,18.624,250.544,17.841z"/>
	<path fill-rule="evenodd" clip-rule="evenodd" fill="#63CF82" d="M239.323,28.932c0.825,0,1.652,0,2.479,0
		C241.277,29.149,239.848,29.149,239.323,28.932z"/>
</g>
</svg>
