<?xml version="1.0" encoding="utf-8"?>
<!-- Generator: Adobe Illustrator 15.0.0, SVG Export Plug-In . SVG Version: 6.00 Build 0)  -->
<!DOCTYPE svg PUBLIC "-//W3C//DTD SVG 1.1//EN" "http://www.w3.org/Graphics/SVG/1.1/DTD/svg11.dtd">
<svg version="1.1"
	 id="Capa_1" sodipodi:docname="056c4189af45692dac1bdacaf46b0617.svg" xmlns:svg="http://www.w3.org/2000/svg" xmlns:inkscape="http://www.inkscape.org/namespaces/inkscape" xmlns:sodipodi="http://sodipodi.sourceforge.net/DTD/sodipodi-0.dtd"
	 xmlns="http://www.w3.org/2000/svg" xmlns:xlink="http://www.w3.org/1999/xlink" x="0px" y="0px" width="247.604px"
	 height="36.117px" viewBox="0 0 247.604 36.117" enable-background="new 0 0 247.604 36.117" xml:space="preserve">
<sodipodi:namedview  id="namedview66" inkscape:pageopacity="0.0" inkscape:pageshadow="2" inkscape:pagecheckerboard="0" bordercolor="#666666" pagecolor="#ffffff" borderopacity="1.0">
	</sodipodi:namedview>
<g>
	<g id="layer1" transform="translate(-56.348864,-1004.2869)">
		<path id="path3078" fill="#016FD0" d="M56.349,1005.095h66.095v18.92l-3.271,5.113l3.271,4.549v5.918H56.349v-18.799l2.045-2.352
			l-2.045-2.249V1005.095z"/>
		<path id="path3082" fill="#FFFFFF" d="M69.18,1034.392v-10.377h10.985l1.181,1.537l1.217-1.537h39.882v9.662
			c0,0-1.044,0.705-2.25,0.715H98.113l-1.33-1.635v1.635H92.43v-2.791c0,0-0.596,0.389-1.883,0.389h-1.482v2.402h-6.593l-1.178-1.57
			l-1.194,1.57H69.18z"/>
		<path id="path3080" fill="#FFFFFF" d="M56.349,1016.196l2.479-5.777h4.283l1.406,3.236v-3.236h5.326l0.838,2.339l0.811-2.339
			h23.91v1.176c0,0,1.259-1.176,3.323-1.176l7.759,0.027l1.38,3.193v-3.22h4.459l1.229,1.835v-1.835h4.497v10.378h-4.497
			l-1.177-1.841v1.841h-6.551l-0.657-1.637h-1.761l-0.646,1.637h-4.441c-1.776,0-2.914-1.152-2.914-1.152v1.152h-6.696l-1.328-1.637
			v1.637H62.479l-0.658-1.637h-1.754l-0.653,1.637h-3.062v-4.601H56.349z"/>
		<path id="path3046" fill="#016FD0" d="M59.704,1011.698l-3.343,7.77h2.177l0.615-1.556h3.585l0.613,1.556h2.224l-3.339-7.77
			H59.704z M60.938,1013.506l1.094,2.719h-2.188L60.938,1013.506z"/>
		<path id="path3048" fill="#016FD0" d="M65.806,1019.467v-7.77l3.091,0.012l1.799,5.009l1.755-5.021h3.067v7.77h-1.944v-5.725
			l-2.058,5.725h-1.703l-2.064-5.725v5.725H65.806z"/>
		<path id="path3050" fill="#016FD0" d="M76.848,1019.467v-7.77h6.338v1.738h-4.377v1.329h4.274v1.636h-4.274v1.38h4.377v1.687
			H76.848L76.848,1019.467z"/>
		<path id="path3052" fill="#016FD0" d="M84.31,1011.698v7.77h1.942v-2.76h0.815l2.329,2.76h2.374l-2.555-2.862
			c1.049-0.089,2.129-0.989,2.129-2.387c0-1.635-1.283-2.521-2.716-2.521H84.31z M86.254,1013.436h2.22
			c0.532,0,0.921,0.417,0.921,0.817c0,0.517-0.503,0.818-0.892,0.818h-2.249V1013.436L86.254,1013.436z"/>
		<path id="path3054" fill="#016FD0" d="M94.125,1019.467h-1.982v-7.77h1.982V1019.467z"/>
		<path id="path3056" fill="#016FD0" d="M98.828,1019.467h-0.43c-2.07,0-3.328-1.632-3.328-3.853c0-2.276,1.242-3.917,3.857-3.917
			h2.146v1.84H98.85c-1.063,0-1.813,0.829-1.813,2.095c0,1.505,0.858,2.137,2.098,2.137h0.511L98.828,1019.467z"/>
		<path id="path3058" fill="#016FD0" d="M103.055,1011.698l-3.343,7.77h2.177l0.616-1.556h3.584l0.613,1.556h2.224l-3.339-7.77
			H103.055z M104.29,1013.506l1.093,2.719h-2.188L104.29,1013.506z"/>
		<path id="path3060" fill="#016FD0" d="M109.152,1019.467v-7.77h2.471l3.152,4.882v-4.882h1.942v7.77h-2.392l-3.231-5.01v5.01
			H109.152z"/>
		<path id="path3062" fill="#016FD0" d="M70.509,1033.064v-7.771h6.34v1.74h-4.377v1.328h4.273v1.635h-4.273v1.381h4.377v1.688
			L70.509,1033.064L70.509,1033.064z"/>
		<path id="path3064" fill="#016FD0" d="M101.565,1033.064v-7.771h6.34v1.74h-4.375v1.328h4.252v1.635h-4.252v1.381h4.375v1.688
			L101.565,1033.064L101.565,1033.064z"/>
		<path id="path3066" fill="#016FD0" d="M77.093,1033.064l3.088-3.838l-3.159-3.935h2.447l1.882,2.433l1.888-2.433h2.352
			l-3.117,3.888l3.093,3.885h-2.446l-1.828-2.396l-1.782,2.396H77.093z"/>
		<path id="path3068" fill="#016FD0" d="M85.793,1025.294v7.771h1.994v-2.455h2.045c1.729,0,3.039-0.918,3.039-2.703
			c0-1.478-1.025-2.613-2.787-2.613H85.793z M87.787,1027.052h2.151c0.56,0,0.958,0.344,0.958,0.895
			c0,0.521-0.396,0.896-0.964,0.896h-2.146V1027.052L87.787,1027.052z"/>
		<path id="path3072" fill="#016FD0" d="M93.716,1025.292v7.771h1.941v-2.763h0.818l2.329,2.763h2.373l-2.557-2.861
			c1.05-0.09,2.13-0.989,2.13-2.389c0-1.636-1.282-2.521-2.714-2.521H93.716z M95.657,1027.032h2.222
			c0.533,0,0.921,0.416,0.921,0.815c0,0.519-0.504,0.818-0.894,0.818h-2.249V1027.032z"/>
		<path id="path3074" fill="#016FD0" d="M108.806,1033.064v-1.688h3.887c0.575,0,0.824-0.311,0.824-0.651
			c0-0.326-0.247-0.656-0.824-0.656h-1.756c-1.525,0-2.377-0.93-2.377-2.326c0-1.246,0.776-2.447,3.047-2.447h3.783l-0.817,1.748
			h-3.271c-0.625,0-0.816,0.328-0.816,0.643c0,0.322,0.237,0.679,0.715,0.679h1.842c1.701,0,2.439,0.967,2.439,2.229
			c0,1.357-0.823,2.474-2.533,2.474h-4.141L108.806,1033.064L108.806,1033.064z"/>
		<path id="path3076" fill="#016FD0" d="M115.934,1033.064v-1.688h3.889c0.574,0,0.823-0.311,0.823-0.651
			c0-0.326-0.248-0.656-0.823-0.656h-1.759c-1.525,0-2.377-0.93-2.377-2.326c0-1.246,0.78-2.447,3.048-2.447h3.784l-0.818,1.748
			h-3.271c-0.626,0-0.818,0.328-0.818,0.643c0,0.322,0.238,0.679,0.717,0.679h1.841c1.702,0,2.438,0.967,2.438,2.229
			c0,1.357-0.821,2.474-2.533,2.474h-4.141V1033.064z"/>
	</g>
	<g id="layer1_1_" transform="translate(-334.55043,-538.36598)">
		<g id="g10267" transform="matrix(4.9846856,0,0,-4.9846856,-1470.1185,1039.6264)">
			<g id="g49">
				<g>
					<g>
						<defs>
							<path id="SVGID_1_" d="M389.593,97.852c-0.009-0.707,0.63-1.101,1.111-1.336c0.494-0.241,0.661-0.395,0.659-0.61
								c-0.004-0.329-0.395-0.475-0.76-0.48c-0.638-0.01-1.009,0.172-1.304,0.31l-0.23-1.076c0.296-0.136,0.844-0.255,1.412-0.261
								c1.334,0,2.206,0.658,2.211,1.679c0.005,1.295-1.792,1.367-1.779,1.946c0.004,0.176,0.172,0.363,0.539,0.411
								c0.181,0.024,0.683,0.043,1.252-0.219l0.223,1.041c-0.306,0.111-0.699,0.218-1.188,0.218
								C390.483,99.475,389.6,98.807,389.593,97.852 M395.071,99.385c-0.244,0-0.449-0.142-0.541-0.36l-1.905-4.549h1.333
								l0.265,0.733h1.628l0.154-0.733h1.174l-1.025,4.909H395.071 M395.258,98.059l0.385-1.843h-1.053L395.258,98.059
								 M387.977,99.385l-1.051-4.909h1.27l1.05,4.909H387.977 M386.098,99.385l-1.322-3.341l-0.534,2.841
								c-0.063,0.317-0.311,0.5-0.586,0.5h-2.161l-0.03-0.143c0.444-0.096,0.948-0.252,1.253-0.418
								c0.187-0.101,0.24-0.19,0.302-0.431l1.013-3.917h1.342l2.057,4.909H386.098"/>
						</defs>
						<clipPath id="SVGID_2_">
							<use xlink:href="#SVGID_1_"  overflow="visible"/>
						</clipPath>
						<g id="g10269" clip-path="url(#SVGID_2_)">
							<g id="g10275" transform="translate(351.611,96.896)">
								
									<linearGradient id="path10283_1_" gradientUnits="userSpaceOnUse" x1="-25.493" y1="-101.3815" x2="-25.325" y2="-101.3815" gradientTransform="matrix(10428.5215 3840.5925 3840.5925 -10428.5215 655249 -959352.25)">
									<stop  offset="0" style="stop-color:#222357"/>
									<stop  offset="1" style="stop-color:#254AA5"/>
								</linearGradient>
								<path id="path10283" fill="url(#path10283_1_)" d="M28.209,1.973l15.484,5.702l3.523-9.565L31.731-7.593"/>
							</g>
						</g>
					</g>
				</g>
			</g>
		</g>
	</g>
	<g id="g63" transform="translate(-0.84886368,-1.9416651)">
		<path id="path53" fill="#231F20" d="M210.467,37.858v-2.392c0.055-0.781-0.537-1.459-1.316-1.515
			c-0.061-0.004-0.123-0.006-0.182-0.002c-0.537-0.032-1.051,0.226-1.34,0.681c-0.267-0.44-0.748-0.701-1.263-0.681
			c-0.442-0.021-0.87,0.193-1.114,0.566v-0.471h-0.828v3.811h0.838v-2.098c-0.066-0.488,0.273-0.938,0.762-1.006
			c0.06-0.006,0.113-0.01,0.17-0.006c0.552,0,0.83,0.358,0.83,1.006v2.117h0.836v-2.111c-0.063-0.49,0.281-0.939,0.773-1.006
			c0.053-0.006,0.104-0.01,0.16-0.006c0.563,0,0.838,0.358,0.838,1.006v2.117L210.467,37.858z M222.85,34.049h-1.363v-1.156h-0.836
			v1.156h-0.758v0.758h0.771v1.752c0,0.887,0.344,1.412,1.323,1.412c0.367,0.002,0.728-0.102,1.035-0.295l-0.237-0.709
			c-0.224,0.131-0.476,0.205-0.732,0.215c-0.398,0-0.551-0.256-0.551-0.639v-1.736h1.354L222.85,34.049z M229.922,33.951
			c-0.412-0.012-0.797,0.201-1.004,0.561v-0.463h-0.822v3.811h0.83v-2.137c0-0.629,0.271-0.979,0.797-0.979
			c0.178-0.004,0.354,0.027,0.519,0.097l0.256-0.799c-0.189-0.066-0.39-0.104-0.59-0.104L229.922,33.951z M219.23,34.351
			c-0.469-0.278-1.008-0.416-1.555-0.399c-0.965,0-1.596,0.463-1.596,1.223c0,0.621,0.465,1.004,1.315,1.123l0.398,0.057
			c0.455,0.063,0.67,0.184,0.67,0.398c0,0.295-0.305,0.463-0.869,0.463c-0.455,0.014-0.902-0.129-1.27-0.398l-0.396,0.646
			c0.482,0.336,1.061,0.51,1.648,0.494c1.102,0,1.737-0.521,1.737-1.244c0-0.727-0.502-1.021-1.332-1.141l-0.396-0.056
			c-0.359-0.049-0.646-0.121-0.646-0.375c0-0.256,0.271-0.446,0.728-0.446c0.42,0.006,0.832,0.116,1.192,0.326L219.23,34.351z
			 M241.435,33.951c-0.412-0.012-0.797,0.201-1.004,0.561v-0.463h-0.821v3.811h0.829v-2.137c0-0.629,0.271-0.979,0.798-0.979
			c0.18-0.004,0.354,0.027,0.52,0.097l0.256-0.799c-0.188-0.066-0.391-0.104-0.59-0.104L241.435,33.951z M230.756,35.945
			c-0.039,1.063,0.789,1.955,1.854,1.994c0.061,0.002,0.118,0.002,0.178-0.003c0.498,0.025,0.988-0.137,1.371-0.452l-0.396-0.67
			c-0.287,0.219-0.637,0.338-0.996,0.342c-0.676-0.056-1.176-0.646-1.121-1.318c0.048-0.598,0.523-1.072,1.121-1.119
			c0.359,0.004,0.709,0.123,0.996,0.342l0.396-0.67c-0.383-0.316-0.873-0.479-1.371-0.453c-1.062-0.061-1.972,0.75-2.029,1.813
			c-0.004,0.063-0.004,0.12-0.002,0.182L230.756,35.945L230.756,35.945z M238.518,35.945v-1.896h-0.828v0.463
			c-0.284-0.369-0.729-0.574-1.194-0.561c-1.103,0-1.992,0.895-1.992,1.994c0,1.102,0.893,1.991,1.992,1.991
			c0.467,0.019,0.91-0.188,1.194-0.559v0.465h0.828V35.945z M235.434,35.945c0.037-0.636,0.582-1.119,1.22-1.082
			c0.633,0.037,1.118,0.582,1.082,1.217c-0.037,0.606-0.537,1.082-1.146,1.084c-0.633,0.01-1.15-0.496-1.158-1.129
			C235.432,36.006,235.432,35.976,235.434,35.945 M225.428,33.951c-1.102,0.018-1.979,0.92-1.965,2.021
			c0.016,1.103,0.922,1.981,2.021,1.965c0.573,0.029,1.137-0.153,1.581-0.518l-0.396-0.613c-0.314,0.252-0.705,0.392-1.107,0.396
			c-0.569,0.052-1.075-0.362-1.143-0.934h2.832v-0.316c0-1.194-0.742-1.991-1.812-1.991L225.428,33.951z M225.428,34.694
			c0.521-0.013,0.953,0.401,0.965,0.924v0.002H224.4c0.029-0.533,0.48-0.943,1.015-0.926H225.428z M246.2,35.953v-3.437h-0.797
			v1.992c-0.285-0.369-0.73-0.574-1.195-0.56c-1.103,0-1.992,0.896-1.992,1.994c0,1.103,0.894,1.992,1.992,1.992
			c0.465,0.018,0.91-0.189,1.195-0.561v0.465h0.797V35.953z M247.584,37.304c0.051,0,0.104,0.011,0.15,0.029
			c0.045,0.018,0.086,0.043,0.122,0.077c0.035,0.035,0.064,0.076,0.084,0.119c0.041,0.095,0.041,0.201,0,0.295
			c-0.02,0.045-0.049,0.086-0.084,0.121c-0.036,0.033-0.077,0.062-0.122,0.078c-0.05,0.021-0.101,0.033-0.15,0.033
			c-0.154-0.002-0.297-0.092-0.359-0.232c-0.041-0.094-0.041-0.198,0-0.295c0.021-0.043,0.049-0.084,0.084-0.119
			c0.035-0.034,0.078-0.063,0.123-0.077c0.054-0.021,0.109-0.031,0.164-0.029H247.584z M247.584,37.978
			c0.037,0,0.078-0.008,0.115-0.022c0.032-0.016,0.063-0.035,0.092-0.063c0.104-0.113,0.104-0.285,0-0.398
			c-0.027-0.026-0.06-0.049-0.092-0.063c-0.037-0.017-0.078-0.022-0.115-0.022c-0.041,0-0.08,0.009-0.117,0.022
			c-0.035,0.017-0.066,0.037-0.094,0.063c-0.104,0.113-0.104,0.285,0,0.398c0.024,0.027,0.059,0.049,0.094,0.063
			c0.041,0.018,0.086,0.025,0.129,0.022H247.584z M247.605,37.504c0.037,0,0.074,0.008,0.105,0.031
			c0.025,0.021,0.037,0.053,0.035,0.084c0,0.026-0.01,0.053-0.027,0.072c-0.022,0.021-0.053,0.032-0.084,0.034l0.115,0.132h-0.092
			l-0.107-0.132h-0.035v0.132h-0.076v-0.351L247.605,37.504z M247.519,37.572v0.096h0.086c0.017,0.004,0.033,0.004,0.05,0
			c0.006-0.012,0.006-0.025,0-0.037c0.006-0.01,0.006-0.023,0-0.035c-0.017-0.006-0.031-0.006-0.05,0L247.519,37.572z
			 M243.135,35.953c0.037-0.635,0.582-1.119,1.219-1.084c0.636,0.039,1.119,0.584,1.082,1.221c-0.037,0.605-0.537,1.08-1.145,1.084
			c-0.633,0.008-1.15-0.498-1.158-1.129C243.131,36.013,243.133,35.983,243.135,35.953 M215.143,35.953v-1.904h-0.83v0.463
			c-0.285-0.369-0.729-0.574-1.195-0.561c-1.102,0-1.991,0.895-1.991,1.994c0,1.102,0.891,1.991,1.991,1.991
			c0.466,0.019,0.91-0.188,1.195-0.559v0.465h0.83V35.953z M212.057,35.953c0.037-0.635,0.582-1.119,1.217-1.084
			c0.638,0.039,1.119,0.584,1.082,1.221c-0.035,0.605-0.537,1.08-1.143,1.084c-0.633,0.012-1.154-0.49-1.168-1.123
			c0-0.031,0-0.063,0.004-0.098H212.057z"/>
		<rect id="rect55" x="218.955" y="5.011" fill="#FF5F00" width="12.557" height="22.563"/>
		<path id="path57" fill="#EB001B" d="M219.754,16.294c-0.006-4.404,2.018-8.565,5.48-11.284c-6.23-4.897-15.253-3.815-20.148,2.416
			c-4.896,6.23-3.814,15.251,2.416,20.148c5.203,4.09,12.528,4.09,17.731,0C221.771,24.855,219.75,20.697,219.754,16.294"/>
		<path id="path59" fill="#F79E1B" d="M248.451,16.294c0,7.924-6.424,14.35-14.349,14.35c-3.217,0-6.342-1.082-8.868-3.069
			c6.229-4.896,7.313-13.917,2.416-20.147c-0.707-0.899-1.519-1.709-2.416-2.416c6.229-4.898,15.25-3.818,20.147,2.412
			c1.986,2.528,3.066,5.651,3.068,8.868L248.451,16.294L248.451,16.294z"/>
		<path id="path61" fill="#F79E1B" d="M247.08,25.183V24.72h0.188v-0.096h-0.473v0.096h0.201v0.463H247.08z M248.002,25.183v-0.559
			h-0.146l-0.165,0.397l-0.169-0.397h-0.129v0.559h0.105v-0.418l0.154,0.361h0.106l0.156-0.361v0.422L248.002,25.183z"/>
	</g>
</g>
</svg>
