<?xml version="1.0" encoding="utf-8"?>
<!-- Generator: Adobe Illustrator 15.0.0, SVG Export Plug-In . SVG Version: 6.00 Build 0)  -->
<!DOCTYPE svg PUBLIC "-//W3C//DTD SVG 1.1//EN" "http://www.w3.org/Graphics/SVG/1.1/DTD/svg11.dtd">
<svg version="1.1"
	 id="Capa_1" xmlns:inkscape="http://www.inkscape.org/namespaces/inkscape" xmlns:sodipodi="http://sodipodi.sourceforge.net/DTD/sodipodi-0.dtd" xmlns:svg="http://www.w3.org/2000/svg" sodipodi:docname="056c4189af45692dac1bdacaf46b0617.svg"
	 xmlns="http://www.w3.org/2000/svg" xmlns:xlink="http://www.w3.org/1999/xlink" x="0px" y="0px" width="337.033px"
	 height="36.117px" viewBox="0 0 337.033 36.117" enable-background="new 0 0 337.033 36.117" xml:space="preserve">
<sodipodi:namedview  id="namedview66" bordercolor="#666666" pagecolor="#ffffff" borderopacity="1.0" inkscape:pagecheckerboard="0" inkscape:pageshadow="2" inkscape:pageopacity="0.0">
	</sodipodi:namedview>
<g>
	<g id="layer1" transform="translate(-56.348864,-1004.2869)">
		<path id="path3078" fill="#016FD0" d="M56.349,1005.095h66.096v18.92l-3.271,5.113l3.271,4.549v5.918H56.349v-18.799l2.045-2.352
			l-2.045-2.249V1005.095z"/>
		<path id="path3082" fill="#FFFFFF" d="M69.18,1034.392v-10.377h10.984l1.182,1.537l1.218-1.537h39.882v9.662
			c0,0-1.044,0.705-2.25,0.715H98.113l-1.33-1.635v1.635H92.43v-2.791c0,0-0.596,0.389-1.883,0.389h-1.481v2.402h-6.594l-1.178-1.57
			l-1.194,1.57H69.18z"/>
		<path id="path3080" fill="#FFFFFF" d="M56.349,1016.196l2.479-5.777h4.283l1.405,3.236v-3.236h5.326l0.838,2.339l0.812-2.339
			h23.91v1.176c0,0,1.259-1.176,3.322-1.176l7.76,0.027l1.38,3.193v-3.22h4.459l1.229,1.835v-1.835h4.497v10.378h-4.497
			l-1.178-1.841v1.841h-6.551l-0.656-1.637h-1.762l-0.646,1.637h-4.44c-1.775,0-2.914-1.152-2.914-1.152v1.152h-6.695l-1.328-1.637
			v1.637H62.479l-0.657-1.637h-1.754l-0.653,1.637h-3.063v-4.601H56.349z"/>
		<path id="path3046" fill="#016FD0" d="M59.704,1011.698l-3.343,7.77h2.177l0.615-1.556h3.585l0.612,1.556h2.225l-3.339-7.77
			H59.704z M60.938,1013.506l1.094,2.719h-2.188L60.938,1013.506z"/>
		<path id="path3048" fill="#016FD0" d="M65.806,1019.467v-7.77l3.092,0.012l1.799,5.009l1.755-5.021h3.066v7.77h-1.943v-5.725
			l-2.059,5.725h-1.702l-2.064-5.725v5.725H65.806z"/>
		<path id="path3050" fill="#016FD0" d="M76.848,1019.467v-7.77h6.338v1.738h-4.377v1.329h4.274v1.636h-4.274v1.38h4.377v1.687
			H76.848L76.848,1019.467z"/>
		<path id="path3052" fill="#016FD0" d="M84.31,1011.698v7.77h1.942v-2.76h0.814l2.328,2.76h2.374l-2.555-2.862
			c1.049-0.089,2.129-0.989,2.129-2.387c0-1.635-1.283-2.521-2.716-2.521H84.31z M86.254,1013.436h2.22
			c0.532,0,0.921,0.417,0.921,0.817c0,0.517-0.503,0.818-0.892,0.818h-2.249V1013.436L86.254,1013.436z"/>
		<path id="path3054" fill="#016FD0" d="M94.125,1019.467h-1.982v-7.77h1.982V1019.467z"/>
		<path id="path3056" fill="#016FD0" d="M98.828,1019.467h-0.43c-2.07,0-3.328-1.632-3.328-3.853c0-2.276,1.241-3.917,3.856-3.917
			h2.146v1.84H98.85c-1.063,0-1.813,0.829-1.813,2.095c0,1.505,0.857,2.137,2.099,2.137h0.512L98.828,1019.467z"/>
		<path id="path3058" fill="#016FD0" d="M103.055,1011.698l-3.343,7.77h2.177l0.616-1.556h3.584l0.612,1.556h2.225l-3.339-7.77
			H103.055z M104.29,1013.506l1.094,2.719h-2.188L104.29,1013.506z"/>
		<path id="path3060" fill="#016FD0" d="M109.152,1019.467v-7.77h2.471l3.152,4.882v-4.882h1.941v7.77h-2.393l-3.23-5.01v5.01
			H109.152z"/>
		<path id="path3062" fill="#016FD0" d="M70.509,1033.064v-7.771h6.34v1.74h-4.377v1.328h4.272v1.635h-4.272v1.381h4.377v1.688
			L70.509,1033.064L70.509,1033.064z"/>
		<path id="path3064" fill="#016FD0" d="M101.565,1033.064v-7.771h6.34v1.74h-4.375v1.328h4.252v1.635h-4.252v1.381h4.375v1.688
			L101.565,1033.064L101.565,1033.064z"/>
		<path id="path3066" fill="#016FD0" d="M77.093,1033.064l3.088-3.838l-3.158-3.937h2.446l1.882,2.435l1.889-2.435h2.353
			l-3.117,3.89l3.094,3.885h-2.446l-1.827-2.396l-1.782,2.396H77.093L77.093,1033.064z"/>
		<path id="path3068" fill="#016FD0" d="M85.793,1025.294v7.771h1.993v-2.455h2.045c1.729,0,3.039-0.918,3.039-2.703
			c0-1.478-1.024-2.613-2.786-2.613H85.793z M87.787,1027.052h2.151c0.56,0,0.957,0.344,0.957,0.895
			c0,0.521-0.396,0.896-0.964,0.896h-2.146L87.787,1027.052L87.787,1027.052z"/>
		<path id="path3072" fill="#016FD0" d="M93.716,1025.292v7.771h1.94v-2.763h0.817l2.329,2.763h2.373l-2.558-2.861
			c1.051-0.09,2.131-0.989,2.131-2.389c0-1.636-1.282-2.521-2.715-2.521H93.716z M95.657,1027.032h2.223
			c0.532,0,0.921,0.416,0.921,0.815c0,0.519-0.504,0.816-0.895,0.816h-2.249V1027.032z"/>
		<path id="path3074" fill="#016FD0" d="M108.806,1033.064v-1.688h3.888c0.574,0,0.823-0.311,0.823-0.651
			c0-0.324-0.247-0.654-0.823-0.654h-1.757c-1.524,0-2.377-0.932-2.377-2.326c0-1.246,0.776-2.447,3.048-2.447h3.782l-0.816,1.748
			h-3.271c-0.625,0-0.815,0.328-0.815,0.645c0,0.322,0.236,0.679,0.715,0.679h1.843c1.7,0,2.438,0.967,2.438,2.229
			c0,1.355-0.823,2.474-2.533,2.474h-4.142L108.806,1033.064L108.806,1033.064z"/>
		<path id="path3076" fill="#016FD0" d="M115.934,1033.064v-1.688h3.89c0.574,0,0.822-0.311,0.822-0.651
			c0-0.324-0.247-0.654-0.822-0.654h-1.759c-1.525,0-2.378-0.932-2.378-2.326c0-1.246,0.78-2.447,3.049-2.447h3.783l-0.817,1.748
			h-3.271c-0.626,0-0.817,0.328-0.817,0.645c0,0.322,0.237,0.679,0.717,0.679h1.842c1.701,0,2.438,0.967,2.438,2.229
			c0,1.355-0.821,2.474-2.533,2.474h-4.142L115.934,1033.064L115.934,1033.064z"/>
	</g>
	<g id="layer1_1_" transform="translate(-334.55043,-538.36598)">
		<g id="g10267" transform="matrix(4.9846856,0,0,-4.9846856,-1470.1185,1039.6264)">
			<g id="g49">
				<g>
					<g>
						<g>
							<g>
								<defs>
									<path id="SVGID_1_" d="M389.593,97.852c-0.009-0.707,0.63-1.101,1.111-1.336c0.494-0.241,0.661-0.395,0.659-0.61
										c-0.004-0.329-0.395-0.475-0.76-0.48c-0.638-0.01-1.009,0.172-1.304,0.31l-0.23-1.076c0.296-0.136,0.844-0.255,1.412-0.261
										c1.334,0,2.206,0.658,2.211,1.679c0.005,1.295-1.792,1.367-1.779,1.946c0.004,0.176,0.172,0.363,0.539,0.411
										c0.181,0.024,0.683,0.043,1.252-0.219l0.223,1.041c-0.306,0.111-0.699,0.218-1.188,0.218
										C390.483,99.475,389.6,98.807,389.593,97.852 M395.071,99.385c-0.244,0-0.449-0.142-0.541-0.36l-1.905-4.549h1.333
										l0.265,0.733h1.628l0.154-0.733h1.174l-1.025,4.909H395.071 M395.258,98.059l0.385-1.843h-1.053L395.258,98.059
										 M387.977,99.385l-1.051-4.909h1.27l1.05,4.909H387.977 M386.098,99.385l-1.322-3.341l-0.534,2.841
										c-0.063,0.317-0.311,0.5-0.586,0.5h-2.161l-0.03-0.143c0.444-0.096,0.948-0.252,1.253-0.418
										c0.187-0.101,0.24-0.19,0.302-0.431l1.013-3.917h1.342l2.057,4.909H386.098"/>
								</defs>
								<clipPath id="SVGID_2_">
									<use xlink:href="#SVGID_1_"  overflow="visible"/>
								</clipPath>
								<g id="g10269" clip-path="url(#SVGID_2_)">
									<g id="g10275" transform="translate(351.611,96.896)">
										
											<linearGradient id="path10283_1_" gradientUnits="userSpaceOnUse" x1="13.4307" y1="-28.4775" x2="13.4307" y2="-28.4775" gradientTransform="matrix(259118.375 95427.5469 95427.5469 -259118.375 -762577.9375 -8660726)">
											<stop  offset="0" style="stop-color:#222357"/>
											<stop  offset="1" style="stop-color:#254AA5"/>
										</linearGradient>
										<path id="path10283" fill="url(#path10283_1_)" d="M28.209,1.973l15.484,5.702l3.523-9.565L31.731-7.593"/>
									</g>
								</g>
							</g>
						</g>
					</g>
				</g>
			</g>
		</g>
	</g>
	<g id="g63" transform="translate(-0.84886368,-1.9416651)">
		<path id="path53" fill="#231F20" d="M210.467,37.858v-2.392c0.056-0.781-0.537-1.459-1.315-1.515
			c-0.062-0.004-0.123-0.006-0.183-0.002c-0.537-0.032-1.051,0.226-1.34,0.681c-0.268-0.44-0.748-0.701-1.264-0.681
			c-0.441-0.021-0.87,0.191-1.113,0.564v-0.471h-0.828v3.813h0.838v-2.1c-0.065-0.488,0.272-0.938,0.763-1.006
			c0.061-0.008,0.112-0.012,0.17-0.008c0.552,0,0.83,0.358,0.83,1.008v2.115h0.836v-2.109c-0.063-0.49,0.28-0.938,0.772-1.006
			c0.053-0.008,0.104-0.012,0.16-0.008c0.563,0,0.838,0.358,0.838,1.008v2.115L210.467,37.858z M222.85,34.049h-1.362v-1.156h-0.836
			v1.156h-0.759v0.758h0.771v1.752c0,0.887,0.345,1.412,1.323,1.412c0.367,0.002,0.729-0.102,1.035-0.295l-0.237-0.709
			c-0.225,0.131-0.477,0.205-0.731,0.215c-0.397,0-0.551-0.256-0.551-0.639v-1.736h1.354L222.85,34.049z M229.922,33.951
			c-0.412-0.012-0.797,0.201-1.004,0.561v-0.463h-0.822v3.811h0.83v-2.137c0-0.629,0.271-0.979,0.797-0.979
			c0.179-0.004,0.354,0.025,0.52,0.097l0.256-0.799c-0.188-0.066-0.39-0.104-0.59-0.104L229.922,33.951z M219.23,34.351
			c-0.47-0.278-1.009-0.416-1.556-0.399c-0.965,0-1.597,0.463-1.597,1.225c0,0.621,0.466,1.004,1.314,1.123l0.398,0.059
			c0.454,0.063,0.67,0.184,0.67,0.396c0,0.295-0.306,0.463-0.869,0.463c-0.455,0.016-0.901-0.129-1.271-0.396l-0.396,0.646
			c0.481,0.336,1.062,0.51,1.647,0.494c1.103,0,1.736-0.521,1.736-1.244c0-0.728-0.502-1.021-1.332-1.142l-0.396-0.057
			c-0.359-0.049-0.646-0.121-0.646-0.375c0-0.256,0.271-0.445,0.729-0.445c0.42,0.006,0.831,0.115,1.191,0.326L219.23,34.351z
			 M241.434,33.951c-0.411-0.012-0.797,0.201-1.004,0.561v-0.463h-0.82v3.811h0.829v-2.137c0-0.629,0.271-0.979,0.798-0.979
			c0.181-0.004,0.354,0.025,0.521,0.097l0.256-0.799c-0.188-0.066-0.392-0.104-0.59-0.104L241.434,33.951z M230.756,35.946
			c-0.039,1.063,0.789,1.955,1.854,1.994c0.062,0.002,0.117,0.002,0.178-0.004c0.498,0.025,0.988-0.137,1.371-0.451l-0.396-0.67
			c-0.287,0.219-0.637,0.338-0.996,0.342c-0.676-0.057-1.176-0.646-1.12-1.317c0.048-0.599,0.522-1.072,1.12-1.119
			c0.359,0.004,0.709,0.123,0.996,0.342l0.396-0.67c-0.383-0.315-0.873-0.479-1.371-0.452c-1.063-0.062-1.972,0.75-2.028,1.813
			c-0.004,0.063-0.004,0.119-0.002,0.182L230.756,35.946L230.756,35.946z M238.517,35.946V34.05h-0.827v0.463
			c-0.284-0.369-0.729-0.573-1.194-0.562c-1.104,0-1.991,0.896-1.991,1.994c0,1.103,0.894,1.99,1.991,1.99
			c0.468,0.02,0.91-0.188,1.194-0.559v0.465h0.827V35.946z M235.433,35.946c0.037-0.637,0.582-1.119,1.221-1.082
			c0.633,0.037,1.118,0.582,1.082,1.217c-0.037,0.605-0.537,1.082-1.146,1.084c-0.633,0.011-1.149-0.495-1.158-1.129
			C235.432,36.006,235.432,35.976,235.433,35.946 M225.428,33.951c-1.103,0.018-1.979,0.92-1.965,2.021
			c0.017,1.103,0.922,1.981,2.021,1.965c0.572,0.029,1.137-0.153,1.581-0.518l-0.396-0.613c-0.313,0.252-0.705,0.392-1.107,0.396
			c-0.568,0.054-1.074-0.36-1.143-0.934h2.832v-0.316c0-1.192-0.742-1.989-1.813-1.989L225.428,33.951z M225.428,34.694
			c0.521-0.013,0.953,0.401,0.965,0.924v0.002H224.4c0.028-0.531,0.479-0.941,1.015-0.926H225.428z M246.2,35.953v-3.438h-0.797
			v1.992c-0.285-0.369-0.729-0.574-1.194-0.562c-1.104,0-1.992,0.896-1.992,1.994c0,1.104,0.895,1.992,1.992,1.992
			c0.465,0.018,0.909-0.189,1.194-0.561v0.465h0.797V35.953z M247.584,37.304c0.051,0,0.104,0.011,0.149,0.029
			c0.045,0.018,0.086,0.043,0.122,0.077c0.034,0.035,0.063,0.076,0.084,0.119c0.041,0.094,0.041,0.201,0,0.295
			c-0.021,0.045-0.05,0.086-0.084,0.121c-0.036,0.031-0.077,0.062-0.122,0.078c-0.051,0.021-0.102,0.031-0.149,0.031
			c-0.154-0.002-0.298-0.092-0.359-0.23c-0.041-0.096-0.041-0.198,0-0.295c0.021-0.043,0.05-0.084,0.084-0.119
			c0.035-0.034,0.078-0.063,0.123-0.077c0.055-0.021,0.109-0.031,0.164-0.029H247.584z M247.584,37.978
			c0.036,0,0.077-0.008,0.114-0.022c0.032-0.016,0.063-0.033,0.093-0.063c0.104-0.113,0.104-0.285,0-0.398
			c-0.027-0.024-0.061-0.049-0.093-0.063c-0.037-0.018-0.078-0.021-0.114-0.021c-0.041,0-0.08,0.01-0.117,0.021
			c-0.035,0.018-0.065,0.037-0.095,0.063c-0.104,0.113-0.104,0.285,0,0.398c0.024,0.027,0.06,0.049,0.095,0.063
			c0.041,0.02,0.086,0.025,0.129,0.022H247.584z M247.605,37.504c0.036,0,0.073,0.008,0.104,0.031
			c0.024,0.021,0.036,0.053,0.034,0.084c0,0.024-0.01,0.053-0.026,0.072c-0.021,0.021-0.054,0.03-0.084,0.032l0.115,0.134h-0.093
			l-0.106-0.134h-0.035v0.134h-0.075v-0.353L247.605,37.504z M247.518,37.572v0.096h0.087c0.017,0.004,0.032,0.004,0.05,0
			c0.006-0.012,0.006-0.025,0-0.037c0.006-0.01,0.006-0.023,0-0.035c-0.018-0.006-0.031-0.006-0.05,0L247.518,37.572z
			 M243.135,35.953c0.037-0.635,0.582-1.119,1.219-1.084c0.637,0.039,1.119,0.584,1.082,1.221c-0.036,0.605-0.536,1.08-1.146,1.084
			c-0.633,0.008-1.149-0.498-1.157-1.129C243.131,36.013,243.133,35.983,243.135,35.953 M215.142,35.953v-1.904h-0.829v0.463
			c-0.285-0.369-0.729-0.574-1.195-0.561c-1.103,0-1.99,0.895-1.99,1.994c0,1.102,0.891,1.989,1.99,1.989
			c0.467,0.021,0.91-0.188,1.195-0.559v0.465h0.829V35.953z M212.057,35.953c0.037-0.635,0.582-1.119,1.218-1.084
			c0.638,0.039,1.118,0.584,1.082,1.221c-0.035,0.605-0.537,1.08-1.144,1.084c-0.634,0.012-1.154-0.49-1.168-1.123
			c0-0.031,0-0.063,0.004-0.098H212.057z"/>
		<rect id="rect55" x="218.955" y="5.011" fill="#FF5F00" width="12.558" height="22.563"/>
		<path id="path57" fill="#EB001B" d="M219.754,16.294c-0.007-4.404,2.019-8.565,5.479-11.284
			c-6.229-4.897-15.253-3.815-20.147,2.416c-4.896,6.23-3.813,15.251,2.416,20.148c5.202,4.09,12.527,4.09,17.73,0
			C221.771,24.856,219.75,20.697,219.754,16.294"/>
		<path id="path59" fill="#F79E1B" d="M248.451,16.294c0,7.924-6.424,14.35-14.35,14.35c-3.217,0-6.342-1.082-8.867-3.069
			c6.229-4.896,7.313-13.917,2.416-20.146c-0.707-0.899-1.52-1.709-2.416-2.416c6.229-4.898,15.25-3.818,20.146,2.412
			c1.985,2.528,3.065,5.651,3.067,8.868L248.451,16.294L248.451,16.294z"/>
		<path id="path61" fill="#F79E1B" d="M247.08,25.183V24.72h0.188v-0.097h-0.473v0.097h0.2v0.463H247.08L247.08,25.183z
			 M248.002,25.183v-0.56h-0.146l-0.165,0.396l-0.169-0.396h-0.13v0.56h0.104v-0.418l0.154,0.361h0.105l0.155-0.361v0.422
			L248.002,25.183z"/>
	</g>
</g>
<g>
	<path fill-rule="evenodd" clip-rule="evenodd" fill="#63CF82" d="M279.988,11.499c0,4.381,0,8.763,0,13.145
		C279.782,20.552,279.782,15.592,279.988,11.499z"/>
	<path fill-rule="evenodd" clip-rule="evenodd" fill="#63CF82" d="M332.815,11.499c0.206,4.093,0.206,9.053,0,13.145
		C332.815,20.262,332.815,15.88,332.815,11.499z"/>
	<path fill-rule="evenodd" clip-rule="evenodd" fill="#6DE08E" d="M309.254,15.468c-1.383,1.421-1.647-0.55-2.729-0.62
		c-0.776-0.053-1.483,0.62-1.115,1.611c0.313,0.844,2.409,0.604,3.225,1.364c1.676,1.563,1.123,4.588-1.117,5.208
		c-0.161,0.417-0.126,1.031-0.495,1.241c-0.497,0.121-0.744,0.121-1.241,0c-0.221-0.276-0.488-0.504-0.371-1.117
		c-1.646,0.064-2.863-3.263-0.496-2.852c0.405,0.07,1.885,2.081,2.479,0.372c0.677-1.942-2.228-1.428-3.225-2.356
		c-1.635-1.526-0.943-4.964,1.117-5.208c0.161-0.417,0.126-1.031,0.495-1.24c0.497-0.123,0.744-0.123,1.241,0
		c0.221,0.274,0.488,0.504,0.371,1.115C308.407,13.421,309.405,13.868,309.254,15.468z"/>
	<path fill-rule="evenodd" clip-rule="evenodd" fill="#6DE08E" d="M279.988,11.499c0-0.125,0-0.248,0-0.372
		c0.873-0.707,1.992-0.668,2.852-1.116c2.166-1.13,3.014-3.125,3.846-5.58c12.855-0.207,26.577-0.207,39.434,0
		c0.597,0.952,0.638,1.968,1.116,2.852c1.106,2.046,2.983,3.01,5.456,3.72c-0.053,0.26,0.085,0.329,0.124,0.497
		c0,4.381,0,8.763,0,13.145c-0.097,0.11-0.134,0.28-0.124,0.496c-2.484,0.743-4.479,1.71-5.581,3.845
		c-0.433,0.838-0.35,1.868-0.991,2.728c-12.857,0.207-26.577,0.207-39.434,0c-0.859-2.483-1.593-4.276-3.597-5.457
		c-1.035-0.608-2.891-0.499-3.101-1.611C279.988,20.262,279.988,15.88,279.988,11.499z M305.162,8.646
		c-4.645,0.813-7.373,3.54-8.185,8.185c-0.207,0.541-0.206,1.94,0,2.48c0.806,4.649,3.542,7.37,8.185,8.184
		c0.499,0.207,1.856,0.207,2.355,0c4.775-0.764,7.545-3.533,8.309-8.308c0.206-0.458,0.206-1.774,0-2.232
		c-0.738-4.76-3.516-7.479-8.185-8.309C307.102,8.44,305.701,8.44,305.162,8.646z M287.676,21.296
		c3.984-0.349,3.619-7.497-1.116-6.325C282.75,15.915,284.063,21.61,287.676,21.296z M322.523,16.583
		c-2.127,4.508,5.172,6.485,6.076,2.356c0.547-2.503-1.381-4.616-3.969-3.969C323.724,15.198,322.817,15.957,322.523,16.583z"/>
	<path fill-rule="evenodd" clip-rule="evenodd" fill="#5FC77D" d="M275.771,0.959c0.082-1.372,4.998-0.869,7.317-0.869
		c17.851,0,36.347-0.205,53.695,0.248c0.053,0.236,0.267,0.312,0.248,0.621c0,11.407,0,22.816,0,34.226
		c0.019,0.308-0.195,0.383-0.248,0.62c-19.623,0.412-41.012,0.413-60.765,0c-0.053-0.237-0.267-0.313-0.248-0.62
		C275.771,23.775,275.771,12.366,275.771,0.959z M332.815,11.499c-0.039-0.168-0.177-0.237-0.124-0.497
		c-2.473-0.71-4.35-1.674-5.456-3.72c-0.479-0.884-0.52-1.899-1.116-2.852c-12.856-0.207-26.578-0.207-39.434,0
		c-0.832,2.455-1.68,4.45-3.846,5.58c-0.859,0.448-1.979,0.409-2.852,1.116c0,0.124,0,0.247,0,0.372
		c-0.206,4.093-0.206,9.053,0,13.145c0.21,1.112,2.065,1.003,3.101,1.611c2.004,1.181,2.737,2.974,3.597,5.457
		c12.856,0.207,26.576,0.207,39.434,0c0.642-0.859,0.559-1.89,0.991-2.728c1.103-2.135,3.097-3.102,5.581-3.845
		c-0.01-0.216,0.027-0.386,0.124-0.496C333.021,20.552,333.021,15.592,332.815,11.499z"/>
	<path fill-rule="evenodd" clip-rule="evenodd" fill="#5FC77D" d="M296.977,16.831c0.812-4.645,3.54-7.372,8.185-8.185
		c0.826,0,1.653,0,2.479,0c4.669,0.829,7.446,3.549,8.185,8.309c0,0.744,0,1.487,0,2.232c-0.764,4.774-3.533,7.544-8.309,8.308
		c-0.785,0-1.571,0-2.355,0c-4.643-0.813-7.379-3.534-8.185-8.184C296.977,18.484,296.977,17.657,296.977,16.831z M307.393,12.986
		c0.117-0.611-0.15-0.841-0.371-1.115c-0.497-0.123-0.744-0.123-1.241,0c-0.369,0.209-0.334,0.823-0.495,1.24
		c-2.061,0.244-2.752,3.682-1.117,5.208c0.997,0.929,3.901,0.414,3.225,2.356c-0.595,1.709-2.074-0.302-2.479-0.372
		c-2.367-0.411-1.15,2.916,0.496,2.852c-0.117,0.613,0.15,0.841,0.371,1.117c0.497,0.121,0.744,0.121,1.241,0
		c0.369-0.21,0.334-0.824,0.495-1.241c2.24-0.62,2.793-3.645,1.117-5.208c-0.815-0.76-2.911-0.521-3.225-1.364
		c-0.368-0.991,0.339-1.664,1.115-1.611c1.081,0.07,1.346,2.041,2.729,0.62C309.405,13.868,308.407,13.421,307.393,12.986z"/>
	<path fill-rule="evenodd" clip-rule="evenodd" fill="#5FC77D" d="M286.56,14.971c4.735-1.172,5.101,5.977,1.116,6.325
		C284.063,21.61,282.75,15.915,286.56,14.971z"/>
	<path fill-rule="evenodd" clip-rule="evenodd" fill="#5FC77D" d="M324.631,14.971c2.588-0.647,4.516,1.466,3.969,3.969
		c-0.904,4.129-8.203,2.151-6.076-2.356C322.817,15.957,323.724,15.198,324.631,14.971z"/>
	<path fill-rule="evenodd" clip-rule="evenodd" fill="#63CF82" d="M305.162,8.646c0.539-0.206,1.94-0.206,2.479,0
		C306.815,8.646,305.988,8.646,305.162,8.646z"/>
	<path fill-rule="evenodd" clip-rule="evenodd" fill="#63CF82" d="M296.977,16.831c0,0.826,0,1.653,0,2.48
		C296.771,18.771,296.77,17.372,296.977,16.831z"/>
	<path fill-rule="evenodd" clip-rule="evenodd" fill="#63CF82" d="M315.826,16.955c0.206,0.458,0.206,1.774,0,2.232
		C315.826,18.442,315.826,17.699,315.826,16.955z"/>
	<path fill-rule="evenodd" clip-rule="evenodd" fill="#63CF82" d="M305.162,27.495c0.784,0,1.57,0,2.355,0
		C307.018,27.702,305.661,27.702,305.162,27.495z"/>
</g>
</svg>
