<?xml version="1.0" encoding="utf-8"?>
<!-- Generator: Adobe Illustrator 15.0.0, SVG Export Plug-In . SVG Version: 6.00 Build 0)  -->
<!DOCTYPE svg PUBLIC "-//W3C//DTD SVG 1.1//EN" "http://www.w3.org/Graphics/SVG/1.1/DTD/svg11.dtd">
<svg version="1.1" id="Capa_1" xmlns="http://www.w3.org/2000/svg" xmlns:xlink="http://www.w3.org/1999/xlink" x="0px" y="0px"
	 width="377px" height="231.931px" viewBox="0 -0.012 377 231.931" enable-background="new 0 -0.012 377 231.931"
	 xml:space="preserve">
<g>
	<g>
		<g>
			<g>
				<g>
					<path d="M317.575,161.954h-44.302L179.393-0.012h44.625L317.575,161.954"/>
				</g>
			</g>
		</g>
	</g>
	<g>
		<g>
			<g>
				<g>
					<path fill="#004AAD" d="M117.32,107.454L179.393-0.012l22.189,38.287l-39.959,69.18L117.32,107.454"/>
				</g>
			</g>
		</g>
	</g>
	<g>
		<g>
			<g>
				<g>
					<path d="M192.994,161.954h-44.307L54.812-0.012h44.625L192.994,161.954"/>
				</g>
			</g>
		</g>
	</g>
	<g>
		<g transform="translate(44.773822, 268.435614)">
			<g>
				<path fill="#231F20" d="M-16.439-76.487v26.098l-19.393-26.098h-8.942v39.443h8.676v-26.164l19.331,26.164h8.937v-39.443
					H-16.439z"/>
			</g>
		</g>
	</g>
	<g>
		<g transform="translate(83.319062, 268.435614)">
			<g>
				<path fill="#231F20" d="M-13.131-36.517c11.244,0,20.248-9.072,20.248-20.246c0-11.179-9.004-20.248-20.248-20.248
					c-11.176,0-20.248,9.069-20.248,20.248C-33.379-45.591-24.307-36.517-13.131-36.517z M-13.131-44.996
					c-6.64,0-11.702-5.129-11.702-11.769c0-6.643,5.062-11.771,11.702-11.771c6.708,0,11.77,5.13,11.77,11.771
					C-1.361-50.125-6.423-44.996-13.131-44.996z"/>
			</g>
		</g>
	</g>
	<g>
		<g transform="translate(122.357308, 268.435614)">
			<g>
				<path fill="#231F20" d="M5.402-76.487h-28.535v7.691h9.994v31.752h8.608v-31.752h9.933V-76.487z"/>
			</g>
		</g>
	</g>
	<g>
		<g transform="translate(148.232293, 268.435614)">
			<g>
				<path fill="#231F20" d="M13.824-37.044h9.271l-14.2-39.443h-9.729l-14.202,39.443h9.271l2.432-7.426h14.729L13.824-37.044z
					 M-1.033-51.703L4.03-67.353l5.062,15.649H-1.033z"/>
			</g>
		</g>
	</g>
	<g>
		<g transform="translate(180.516357, 268.435614)">
			<g>
				<path fill="#231F20" d="M21.031-53.281c4.666-1.381,7.959-5.718,7.959-11.112c0-6.703-5-12.094-11.771-12.094H0.454v39.443
					h8.677v-15.254h3.483l9.732,15.254h9.729L21.031-53.281z M15.902-59.464H9.131v-9.332h6.771c2.767,0,4.801,1.97,4.801,4.666
					C20.702-61.369,18.665-59.464,15.902-59.464z"/>
			</g>
		</g>
	</g>
	<g>
		<g transform="translate(211.863709, 268.435614)">
			<g>
				<path fill="#231F20" d="M42.453-76.487h-9.658l-8.418,13.342l-8.414-13.342H6.166l13.875,20.904v18.539h8.676V-55.65
					L42.453-76.487z"/>
			</g>
		</g>
	</g>
	<g>
		<g transform="translate(242.816657, 268.435614)">
			<g>
				<path fill="#231F20" d="M49.549-76.487v26.098L30.154-76.487h-8.941v39.443h8.676v-26.164L49.22-37.044h8.938v-39.443H49.549z"
					/>
			</g>
		</g>
	</g>
	<g>
		<g transform="translate(281.361897, 268.435614)">
			<g>
				<path fill="#231F20" d="M58.117-68.863v-7.624H34.383v39.443h23.731v-7.625H43.06v-8.284h12.889v-7.624H43.06v-8.286H58.117z"/>
			</g>
		</g>
	</g>
	<g>
		<g transform="translate(309.307507, 268.435614)">
			<g>
				<path fill="#231F20" d="M67.693-76.487H39.159v7.691h9.994v31.752h8.607v-31.752h9.932V-76.487L67.693-76.487z"/>
			</g>
		</g>
	</g>
</g>
</svg>
