<svg width="25" height="20" viewBox="0 0 25 20" fill="none" xmlns="http://www.w3.org/2000/svg">
<path d="M23.75 1.39287C22.7924 2.06835 21.7321 2.58498 20.61 2.92287C20.0077 2.23038 19.2073 1.73956 18.317 1.51679C17.4267 1.29403 16.4895 1.35006 15.6321 1.67732C14.7747 2.00458 14.0384 2.58727 13.523 3.34658C13.0075 4.1059 12.7377 5.0052 12.75 5.92287V6.92287C10.9926 6.96844 9.25127 6.57868 7.68101 5.78831C6.11074 4.99795 4.76032 3.8315 3.75 2.39287C3.75 2.39287 -0.25 11.3929 8.75 15.3929C6.69053 16.7908 4.23716 17.4918 1.75 17.3929C10.75 22.3929 21.75 17.3929 21.75 5.89287C21.7491 5.61432 21.7223 5.33646 21.67 5.06287C22.6906 4.05636 23.4108 2.78558 23.75 1.39287Z" stroke="white" stroke-width="2" stroke-linecap="round" stroke-linejoin="round"/>
</svg>
