<?xml version="1.0" encoding="utf-8"?>
<!-- Generator: Adobe Illustrator 15.0.0, SVG Export Plug-In . SVG Version: 6.00 Build 0)  -->
<!DOCTYPE svg PUBLIC "-//W3C//DTD SVG 1.1//EN" "http://www.w3.org/Graphics/SVG/1.1/DTD/svg11.dtd">
<svg version="1.1" id="Capa_1" xmlns="http://www.w3.org/2000/svg" xmlns:xlink="http://www.w3.org/1999/xlink" x="0px" y="0px"
	 width="178.99px" height="179.293px" viewBox="0 0 178.99 179.293" enable-background="new 0 0 178.99 179.293"
	 xml:space="preserve">
<g>
	<g>
		<path id="Fill_1_1_" d="M115.171,43.542H76.78c-1.413,0-2.56-1.147-2.56-2.562l0,0V17.929c0-1.413,1.147-2.559,2.56-2.559
			c1.414,0,2.56,1.146,2.56,2.559v20.49h35.831c1.414,0.037,2.531,1.213,2.494,2.627C117.632,42.41,116.532,43.506,115.171,43.542"
			/>
		<path id="Fill_3_1_" d="M115.171,163.92H2.558c-1.414,0-2.558-1.146-2.558-2.561V2.562C-0.001,1.147,1.145,0.001,2.558,0l0,0
			H76.78c0.677,0.002,1.326,0.272,1.803,0.75l38.395,38.426c0.479,0.478,0.748,1.126,0.75,1.803v5.123
			c0,1.412-1.145,2.558-2.559,2.558c-1.416,0-2.563-1.146-2.563-2.558V42.04L75.716,5.123H5.122v153.676h107.495V145.99
			c0-1.412,1.145-2.561,2.559-2.561s2.559,1.148,2.559,2.561v15.369c0,1.414-1.146,2.561-2.561,2.561
			C115.173,163.92,115.173,163.92,115.171,163.92"/>
		<path id="Fill_12" d="M40.947,33.297H23.034c-1.415-0.037-2.533-1.212-2.497-2.626c0.036-1.364,1.134-2.462,2.497-2.496h17.913
			c1.415,0.037,2.534,1.212,2.497,2.626C43.41,32.165,42.312,33.262,40.947,33.297"/>
		<path id="Fill_14" d="M56.303,43.542h-33.27c-1.415-0.036-2.533-1.212-2.497-2.626c0.036-1.364,1.133-2.462,2.497-2.497h33.275
			c1.417,0.037,2.533,1.212,2.497,2.626c-0.036,1.364-1.133,2.461-2.497,2.496"/>
	</g>
	<path fill="#FFFFFF" d="M140.472,177.498c0-0.543-0.014-0.543,1.219-119.766L102.683,17.81H28.627v158.167L140.472,177.498z"/>
	<path fill="#FFFFFF" stroke="#000000" stroke-width="6" stroke-linecap="round" stroke-linejoin="round" d="M120.591,118.205
		l25.557-80.353c1.613-5.068,6.85-8.049,12.029-6.845l0,0c5.725,1.329,9.145,7.205,7.473,12.837l-24.105,81.28l-14.658,10.643
		L120.591,118.205z M120.655,149.438l31.025,0.048"/>
	<g>
		<path d="M102.38,30.741c-1.414,0-2.561,1.146-2.561,2.559v23.05c0,1.415,1.146,2.562,2.561,2.562h22.701l0.305-5.122h-20.447V33.3
			C104.938,31.886,103.792,30.741,102.38,30.741z"/>
		<path d="M140.774,160.086c-1.416,0-2.561,1.148-2.561,2.561v11.521H30.721V20.493h70.595l25.637,25.657l0.346-6.893
			l-23.115-23.136c-0.479-0.479-1.125-0.749-1.803-0.75H28.157c-1.414,0.001-2.56,1.147-2.558,2.562v158.796
			c0,1.416,1.145,2.561,2.558,2.561h112.613c0,0,0,0,0.002,0c1.414,0,2.561-1.145,2.561-2.561v-14.082
			C143.333,161.234,142.188,160.086,140.774,160.086z"/>
	</g>
	<path d="M66.546,48.667c1.365-0.035,2.463-1.132,2.497-2.497c0.037-1.415-1.082-2.589-2.497-2.626H48.633
		c-1.363,0.034-2.461,1.132-2.497,2.496c-0.037,1.414,1.082,2.59,2.497,2.626H66.546z"/>
	<path d="M48.632,58.912h33.27h0.005c1.363-0.035,2.461-1.131,2.497-2.496c0.037-1.415-1.08-2.59-2.497-2.627H48.632
		c-1.363,0.035-2.461,1.133-2.497,2.497C46.099,57.7,47.217,58.876,48.632,58.912z"/>
	<g>
		<path d="M126.116,58.911c1.414,0,2.559-1.146,2.559-2.56c0-1.413-1.145-2.56-2.559-2.56h-6.604v5.12H126.116z"/>
	</g>
	<g>
		<path d="M127.03,46.386c0.984,1.015,2.605,1.038,3.619,0.052c1.014-0.984,1.037-2.604,0.053-3.619l-4.6-4.737l-3.674,3.566
			L127.03,46.386z"/>
	</g>
</g>
</svg>
