<?xml version="1.0" encoding="utf-8"?>
<!-- Generator: Adobe Illustrator 15.0.0, SVG Export Plug-In . SVG Version: 6.00 Build 0)  -->
<!DOCTYPE svg PUBLIC "-//W3C//DTD SVG 1.1//EN" "http://www.w3.org/Graphics/SVG/1.1/DTD/svg11.dtd">
<svg version="1.1" id="Capa_1" xmlns="http://www.w3.org/2000/svg" xmlns:xlink="http://www.w3.org/1999/xlink" x="0px" y="0px"
	 width="178.99px" height="179.293px" viewBox="-10.724 0 178.99 179.293" enable-background="new -10.724 0 178.99 179.293"
	 xml:space="preserve">
<g>
	<path id="Fill_1_1_" d="M143.946,47.625h-42.154c-1.553,0.002-2.809-1.252-2.811-2.802l0,0V19.611c0-1.552,1.258-2.811,2.811-2.811
		c1.551,0,2.811,1.258,2.811,2.811v22.411h39.346c1.545-0.039,2.832,1.184,2.871,2.731c0.041,1.547-1.186,2.833-2.729,2.872
		C144.04,47.626,143.991,47.626,143.946,47.625"/>
	<path id="Fill_3_1_" d="M143.948,179.292H82.12c-1.547,0.039-2.834-1.185-2.871-2.731c-0.041-1.545,1.184-2.832,2.729-2.871
		c0.049,0,0.096,0,0.144,0h59.016V45.983l-40.508-40.38H23.103v81.243c0,1.552-1.257,2.81-2.811,2.81c-1.551,0-2.81-1.258-2.81-2.81
		V2.803c0.002-1.55,1.259-2.804,2.81-2.803l0,0h81.5c0.744,0,1.459,0.294,1.986,0.82l42.152,42.022
		c0.525,0.526,0.819,1.239,0.817,1.981v131.668C146.748,178.039,145.493,179.292,143.948,179.292"/>
	<path id="Fill_5_1_" d="M62.447,36.42H42.772c-1.546,0.039-2.833-1.184-2.872-2.73c-0.038-1.547,1.184-2.833,2.731-2.873
		c0.048-0.001,0.095-0.001,0.141,0h19.675c1.546-0.04,2.833,1.184,2.871,2.73c0.04,1.547-1.185,2.833-2.729,2.873
		C62.542,36.421,62.494,36.421,62.447,36.42"/>
	<path id="Fill_7_1_" d="M79.307,47.625H42.772c-1.546,0.04-2.833-1.184-2.872-2.73c-0.038-1.547,1.184-2.833,2.731-2.873
		c0.048,0,0.095,0,0.141,0h36.535c1.547-0.039,2.834,1.184,2.871,2.731c0.039,1.547-1.184,2.833-2.73,2.872
		C79.401,47.626,79.356,47.626,79.307,47.625"/>
	<path id="Fill_9_1_" d="M45.584,95.249c-1.55,0.002-2.807-1.252-2.809-2.802v-5.604c0-1.552,1.258-2.81,2.811-2.81
		c1.552,0,2.811,1.258,2.811,2.81v5.604C48.393,93.999,47.134,95.252,45.584,95.249L45.584,95.249"/>
	<path id="Fill_11_1_" d="M9.05,114.859H-2.195c-4.642,0.066-8.46-3.641-8.528-8.281c-0.066-4.641,3.64-8.459,8.281-8.527
		c0.082,0,0.165,0,0.247,0h16.853c4.491-0.258,8.924-1.152,13.163-2.656c1.091-0.422,2.146-0.926,3.158-1.512
		c4.405-2.682,9.446-4.145,14.604-4.236c1.548-0.04,2.833,1.184,2.873,2.731c0.039,1.546-1.184,2.833-2.731,2.871
		c-0.047,0-0.094,0-0.142,0c-4.227,0.099-8.348,1.331-11.936,3.567c-1.291,0.742-2.641,1.373-4.038,1.893
		c-4.808,1.712-9.842,2.703-14.94,2.943H-2.195c-1.548-0.037-2.835,1.185-2.873,2.73c-0.039,1.549,1.184,2.833,2.731,2.871
		c0.047,0.002,0.095,0.002,0.142,0H9.046c1.547-0.038,2.832,1.186,2.873,2.73c0.038,1.549-1.184,2.832-2.731,2.871
		c-0.048,0.002-0.095,0.002-0.142,0"/>
	<path id="Fill_13_1_" d="M9.042,159.684c-7.683,0-16.854-2.43-16.854-14.007c0.002-1.55,1.261-2.803,2.811-2.803l0,0h16.854
		c1.546-0.039,2.833,1.185,2.871,2.731c0.039,1.547-1.184,2.832-2.729,2.871c-0.047,0.002-0.095,0.002-0.142,0H-1.872
		c1.23,4.855,5.92,5.603,10.913,5.603c9.879,0,11.241-4.037,11.241-8.402c0-1.553,1.259-2.811,2.812-2.811
		c1.552,0,2.811,1.258,2.811,2.811c0,11.577-9.172,14.009-16.854,14.009"/>
	<path id="Fill_15" d="M23.103,148.477c-1.135,0.002-2.157-0.678-2.597-1.723L9.049,119.342l-11.456,27.412
		c-0.632,1.418-2.294,2.057-3.71,1.423c-1.366-0.606-2.016-2.18-1.479-3.573L6.456,110.98c0.601-1.434,2.25-2.105,3.683-1.506
		c0.681,0.284,1.222,0.825,1.507,1.506l14.051,33.617c0.592,1.435-0.089,3.075-1.522,3.668
		C23.833,148.404,23.47,148.477,23.103,148.477"/>
	<path id="Fill_17" d="M93.36,114.859c-1.547,0.039-2.832-1.186-2.873-2.73c-0.039-1.545,1.184-2.832,2.729-2.873
		c0.049,0,0.097,0,0.144,0c1.547,0.041,2.834-1.184,2.871-2.729c0.039-1.547-1.185-2.834-2.729-2.875c-0.048,0-0.096,0-0.143,0
		H76.506c-5.102-0.24-10.137-1.231-14.947-2.943c-1.397-0.52-2.748-1.148-4.04-1.893c-3.586-2.236-7.71-3.469-11.937-3.567
		c-1.356,0.746-3.249-0.097-3.993-1.453c-0.746-1.354-0.249-3.062,1.106-3.805c0.84-0.461,1.857-0.461,2.887-0.345
		c5.155,0.093,10.192,1.555,14.594,4.233c1.015,0.585,2.068,1.091,3.16,1.514c4.236,1.516,8.667,2.408,13.162,2.657h16.854
		c4.645-0.065,8.461,3.642,8.527,8.281c0.066,4.644-3.641,8.461-8.281,8.526c-0.082,0.002-0.164,0.002-0.246,0"/>
	<path id="Fill_19" d="M82.11,159.684c-7.684,0-16.853-2.43-16.853-14.007c0.002-1.55,1.26-2.803,2.81-2.803l0,0h16.854
		c1.545-0.039,2.832,1.185,2.87,2.731c0.039,1.547-1.184,2.832-2.729,2.871c-0.048,0.002-0.095,0.002-0.142,0H71.196
		c1.229,4.855,5.92,5.603,10.912,5.603c9.879,0,11.244-4.037,11.244-8.402c0-1.553,1.256-2.811,2.809-2.811s2.813,1.258,2.813,2.811
		c0,11.577-9.172,14.009-16.854,14.009"/>
	<path id="Fill_21" d="M96.17,148.477c-1.135,0.002-2.158-0.678-2.596-1.723l-11.459-27.412l-11.455,27.412
		c-0.633,1.418-2.292,2.057-3.708,1.423c-1.365-0.606-2.016-2.18-1.479-3.573l14.049-33.623c0.602-1.434,2.25-2.105,3.684-1.506
		c0.682,0.284,1.223,0.825,1.508,1.506l14.051,33.617c0.594,1.435-0.09,3.075-1.521,3.668
		C96.903,148.404,96.538,148.477,96.17,148.477"/>
	<path id="Fill_23" d="M70.879,179.292H20.294c-1.549,0-2.807-1.252-2.812-2.801c0-7.373,9.544-14.009,14.051-14.009h28.104
		c4.509,0,14.049,6.636,14.049,14.009C73.684,178.04,72.426,179.292,70.879,179.292z M31.533,168.087
		c-1.875,0.521-3.591,1.506-4.99,2.858c-0.933,0.801-1.754,1.724-2.438,2.744h42.963c-0.681-1.021-1.5-1.943-2.433-2.744
		c-1.399-1.356-3.121-2.342-5.002-2.858H31.533z"/>
	<path id="Fill_25" d="M28.722,114.859h-8.425c-1.548,0.039-2.833-1.186-2.873-2.731c-0.039-1.548,1.184-2.833,2.731-2.872
		c0.047-0.002,0.094-0.002,0.142,0h8.425c1.775-0.301,3.464-0.982,4.946-2.002c3.535-1.986,8.883-4.982,13.904,0.021
		c1.077,1.113,1.049,2.889-0.064,3.968c-1.09,1.056-2.821,1.054-3.908-0.007c-1.756-1.748-3.106-1.381-7.172,0.896
		c-2.296,1.554-4.95,2.488-7.711,2.724"/>
	<path id="Fill_27" d="M82.118,114.859h-19.67c-2.763-0.234-5.414-1.172-7.709-2.725c-4.069-2.279-5.42-2.648-7.172-0.896
		c-1.133,1.059-2.908,1-3.966-0.132c-1.011-1.078-1.011-2.754-0.002-3.834c5.02-5.004,10.365-2.006,13.904-0.021
		c1.482,1.021,3.168,1.703,4.944,2.002h19.671c1.548-0.038,2.832,1.185,2.873,2.731c0.039,1.548-1.185,2.832-2.73,2.871
		C82.213,114.861,82.167,114.861,82.118,114.859"/>
	<path id="Fill_29" d="M45.584,168.087c-1.55,0.001-2.807-1.252-2.809-2.802v-44.823c0-1.552,1.258-2.808,2.811-2.808
		c1.552,0,2.811,1.256,2.811,2.808v44.823c-0.002,1.552-1.261,2.805-2.811,2.803l0,0"/>
</g>
</svg>
