<?xml version="1.0" encoding="utf-8"?>
<!-- Generator: Adobe Illustrator 15.0.0, SVG Export Plug-In . SVG Version: 6.00 Build 0)  -->
<!DOCTYPE svg PUBLIC "-//W3C//DTD SVG 1.1//EN" "http://www.w3.org/Graphics/SVG/1.1/DTD/svg11.dtd">
<svg version="1.1" id="Capa_1" xmlns="http://www.w3.org/2000/svg" xmlns:xlink="http://www.w3.org/1999/xlink" x="0px" y="0px"
	 width="178.99px" height="179.293px" viewBox="-8.317 0 178.99 179.293" enable-background="new -8.317 0 178.99 179.293"
	 xml:space="preserve">
<g id="Group_5" transform="translate(0)">
	<g id="Group_16">
		<path id="Fill_1_1_" d="M117.655,47.625H75.664c-1.546,0-2.8-1.255-2.8-2.802l0,0V19.611c0-1.546,1.254-2.799,2.8-2.799
			s2.8,1.253,2.8,2.799v22.412h39.191c1.547,0.04,2.77,1.326,2.729,2.873C120.346,46.387,119.145,47.587,117.655,47.625"/>
		<path id="Fill_3_1_" d="M117.655,179.294H-5.519c-1.546,0-2.798-1.254-2.798-2.802V2.802C-8.319,1.255-7.065,0.001-5.519,0l0,0
			h81.183c0.741,0.002,1.45,0.298,1.972,0.821l41.996,42.03c0.523,0.523,0.818,1.232,0.82,1.972v5.604
			c0,1.544-1.252,2.798-2.799,2.798c-1.549,0-2.803-1.254-2.803-2.798v-4.444l-40.35-40.38H-2.715v168.088H114.86v-14.008
			c0-1.545,1.253-2.8,2.8-2.8s2.799,1.255,2.799,2.8v16.809c0,1.548-1.254,2.802-2.801,2.802
			C117.657,179.294,117.657,179.294,117.655,179.294"/>
		<g id="Group_7" transform="translate(49.962 51.563)">
			<path id="Clip_6-2" fill="none" d="M31.3,40.886h72.78v58.83H31.3V40.886z"/>
			<g>
				<g>
					<g>
						<defs>
							<rect id="SVGID_1_" x="31.3" y="40.886" width="72.78" height="58.83"/>
						</defs>
						<clipPath id="SVGID_2_">
							<use xlink:href="#SVGID_1_"  overflow="visible"/>
						</clipPath>
						<g id="Group_7-2" clip-path="url(#SVGID_2_)">
							<path id="Fill_5_1_" d="M97.082,99.716H38.293c-3.807,0.045-6.932-2.998-6.991-6.805V47.701
								c0.055-3.811,3.183-6.859,6.991-6.813h58.789c3.813-0.047,6.94,3.004,6.994,6.813v45.211
								C104.013,96.718,100.89,99.761,97.082,99.716z M38.293,46.489c-0.717-0.049-1.34,0.487-1.396,1.204v45.219
								c0.058,0.719,0.681,1.254,1.396,1.201h58.789c0.719,0.053,1.342-0.482,1.402-1.201V47.701
								c-0.063-0.719-0.686-1.254-1.402-1.205L38.293,46.489z"/>
						</g>
					</g>
				</g>
			</g>
		</g>
		<path id="Fill_8" d="M140.048,98.052c-1.545,0-2.797-1.254-2.797-2.802V84.051c0-10.82-8.773-19.592-19.596-19.592
			c-10.823,0-19.598,8.772-19.598,19.592V95.25c0,1.545-1.254,2.799-2.799,2.799c-1.547,0-2.801-1.254-2.801-2.799V84.051
			c-0.234-13.913,10.854-25.381,24.766-25.616c13.914-0.234,25.383,10.856,25.617,24.767c0.004,0.284,0.004,0.567,0,0.849V95.25
			c0,1.548-1.254,2.802-2.799,2.802l0,0"/>
		<path id="Fill_10" d="M117.65,137.271c-4.638-0.012-8.392-3.77-8.394-8.404v-3.838c-4.092-4.637-3.646-11.713,0.99-15.803
			c4.637-4.093,11.713-3.646,15.803,0.988c3.732,4.234,3.732,10.582,0,14.813v3.839C126.048,133.504,122.29,137.266,117.65,137.271z
			 M117.65,112.059c-3.091,0.008-5.593,2.512-5.595,5.604c0.002,1.586,0.686,3.092,1.873,4.144c0.588,0.531,0.924,1.288,0.924,2.084
			v4.979c-0.039,1.545,1.186,2.83,2.73,2.872c1.545,0.037,2.832-1.186,2.869-2.731c0.002-0.045,0.002-0.095,0-0.141v-4.979
			c0.002-0.796,0.336-1.553,0.926-2.084c1.19-1.052,1.873-2.558,1.873-4.144C123.249,114.57,120.745,112.063,117.65,112.059z"/>
		<path id="Fill_12" d="M36.47,36.42H16.877c-1.548-0.04-2.771-1.326-2.731-2.873c0.039-1.492,1.24-2.693,2.731-2.73H36.47
			c1.548,0.04,2.771,1.325,2.731,2.872C39.164,35.181,37.963,36.382,36.47,36.42"/>
		<path id="Fill_14" d="M53.266,47.625h-36.39c-1.548-0.039-2.771-1.325-2.731-2.872c0.039-1.492,1.24-2.693,2.731-2.731h36.396
			c1.55,0.04,2.771,1.326,2.731,2.873c-0.039,1.492-1.24,2.692-2.731,2.73"/>
	</g>
</g>
</svg>
