<?xml version="1.0" encoding="utf-8"?>
<!-- Generator: Adobe Illustrator 15.0.0, SVG Export Plug-In . SVG Version: 6.00 Build 0)  -->
<!DOCTYPE svg PUBLIC "-//W3C//DTD SVG 1.1//EN" "http://www.w3.org/Graphics/SVG/1.1/DTD/svg11.dtd">
<svg version="1.1" id="Capa_1" xmlns="http://www.w3.org/2000/svg" xmlns:xlink="http://www.w3.org/1999/xlink" x="0px" y="0px"
	 width="178.99px" height="179.293px" viewBox="0 0 178.99 179.293" enable-background="new 0 0 178.99 179.293"
	 xml:space="preserve">
<g id="Group_20" transform="translate(0 -0.7)">
	<path id="Fill_1" d="M103.208,70.767H24.897c-1.546,0-2.8-1.253-2.8-2.8s1.253-2.8,2.8-2.8h78.311c1.547,0,2.8,1.254,2.8,2.8
		S104.755,70.767,103.208,70.767"/>
	<path id="Fill_3" d="M83.76,93.179H24.897c-1.546,0-2.8-1.253-2.8-2.8c0-1.546,1.253-2.8,2.8-2.8H83.76c1.546,0,2.8,1.254,2.8,2.8
		C86.56,91.926,85.306,93.179,83.76,93.179"/>
	<path id="Fill_5" d="M50.066,48.355H24.897c-1.546,0-2.8-1.253-2.8-2.8s1.253-2.8,2.8-2.8h25.169c1.546,0,2.8,1.253,2.8,2.8
		S51.612,48.355,50.066,48.355"/>
	<path id="Fill_7" d="M24.897,154.819c-1.546-0.002-2.799-1.256-2.797-2.803c0-0.379,0.078-0.754,0.228-1.103
		c0.078-0.19,8.162-19.215,8.162-29.715c-0.071-1.545,1.123-2.854,2.667-2.927c1.545-0.071,2.855,1.123,2.927,2.668
		c0.004,0.086,0.004,0.172,0,0.259c0,7.394,4.009,19.017,6.409,25.312l8.188-10.252c0.969-1.205,2.731-1.396,3.937-0.428
		c0.51,0.41,0.861,0.986,0.99,1.628c0.617,3.048,3.5,11.755,8.445,11.755h2.8c1.546,0.002,2.799,1.256,2.798,2.803
		c-0.001,1.545-1.253,2.797-2.798,2.797h-2.8c-6.655,0-10.4-6.19-12.3-10.938l-7.9,9.887c-0.963,1.207-2.722,1.404-3.928,0.441
		c-0.361-0.288-0.646-0.662-0.827-1.087c-2.236-5.341-4.179-10.799-5.82-16.351c-1.641,5.552-3.583,11.01-5.82,16.351
		C27.019,154.143,26.013,154.813,24.897,154.819"/>
	<path id="Fill_9" d="M125.584,48.358H83.633c-1.546,0-2.8-1.254-2.8-2.8V20.342c-0.072-1.545,1.123-2.855,2.667-2.927
		c1.544-0.071,2.855,1.123,2.927,2.667c0.004,0.086,0.004,0.173,0,0.259v22.413h39.157c1.546,0,2.8,1.253,2.8,2.8
		s-1.254,2.8-2.8,2.8"/>
	<path id="Fill_11" d="M125.862,48.325H83.911c-1.546,0-2.8-1.254-2.8-2.8V20.309c-0.071-1.544,1.123-2.855,2.667-2.926
		c1.545-0.072,2.855,1.123,2.927,2.667c0.004,0.086,0.004,0.173,0,0.259v22.413h39.157c1.546,0,2.8,1.253,2.8,2.8
		s-1.254,2.8-2.8,2.8"/>
	<g id="Group_15" transform="translate(0 0.694)">
		<path id="Clip_14-2" fill="none" d="M0,0.006h128.658v179.293H0V0.006z"/>
		<g>
			<defs>
				<rect id="SVGID_1_" y="0.006" width="128.658" height="179.293"/>
			</defs>
			<clipPath id="SVGID_2_">
				<use xlink:href="#SVGID_1_"  overflow="visible"/>
			</clipPath>
			<g id="Group_15-2" clip-path="url(#SVGID_2_)">
				<path id="Fill_13" d="M125.86,179.299H2.8c-1.546,0-2.8-1.254-2.8-2.8l0,0V2.806c0-1.546,1.253-2.8,2.8-2.8h81.108
					c0.742,0,1.453,0.295,1.977,0.82l41.954,42.022c0.525,0.526,0.82,1.238,0.819,1.981v28.015c0.071,1.545-1.123,2.855-2.667,2.927
					c-1.545,0.071-2.855-1.123-2.928-2.667c-0.004-0.086-0.004-0.173,0-0.259V45.99L82.749,5.606H5.594v168.089h117.471v-22.412
					c-0.072-1.544,1.122-2.854,2.667-2.926c1.544-0.072,2.854,1.123,2.927,2.667c0.004,0.087,0.004,0.173,0,0.259v25.214
					c0,1.546-1.254,2.8-2.801,2.8l0,0"/>
			</g>
		</g>
	</g>
	<path id="Fill_16" d="M92.296,154.781c-1.547-0.001-2.799-1.257-2.797-2.803c0-0.585,0.184-1.153,0.523-1.628
		c22.809-31.985,62.557-62.773,62.955-63.081c1.234-0.931,2.99-0.684,3.921,0.551c0.919,1.219,0.692,2.95-0.511,3.89
		c-0.393,0.3-39.494,30.601-61.813,61.9c-0.524,0.737-1.374,1.174-2.278,1.173"/>
	<path id="Fill_18" d="M111.876,146.339c-1.547-0.002-2.799-1.256-2.798-2.803c0.001-1.545,1.253-2.797,2.798-2.798
		c9.808-0.311,19.313-3.469,27.355-9.09l-0.004-0.007c-0.628-0.852-1.1-1.808-1.396-2.823c-0.387-1.313,0.038-2.729,1.083-3.613
		c0.804-0.704,1.85-1.068,2.917-1.016c0.634,0.015,1.267,0.073,1.894,0.179h0.006c0.658,0.109,1.324,0.172,1.99,0.188
		c1.137,0.043,2.234-0.41,3.01-1.24c8.938-8.952,16.601-19.926,21.029-30.109c4.189-9.642,4.799-17.29,1.639-20.457
		c-1.328-1.332-3.428-2.008-6.241-2.008c-3.808,0-8.712,1.261-14.185,3.648c-10.158,4.431-21.115,12.108-30.057,21.059
		c-1.447,1.452-1.363,2.863-1.051,5.013c0.216,1.494,0.484,3.354-0.829,4.82c-0.644,0.772-1.595,1.22-2.601,1.224
		c-1.402-0.137-2.737-0.672-3.846-1.544c-3.832,5.169-6.805,10.923-8.8,17.039c-1.489,4.794-2.629,11.493,0.399,16.179
		c0.855,1.289,0.505,3.026-0.783,3.882c-1.289,0.855-3.026,0.505-3.881-0.784c-0.012-0.018-0.023-0.035-0.035-0.053
		c-5.108-7.9-3.4-24.562,9.755-41.101c0.613-0.846,1.593-1.347,2.638-1.35c0.775,0.024,1.534,0.222,2.223,0.577
		c-0.289-2.917,0.758-5.808,2.85-7.861c9.416-9.431,21-17.537,31.783-22.24c6.248-2.721,11.769-4.101,16.412-4.101
		c4.365,0,7.801,1.224,10.207,3.638c5,5,4.832,14.47-0.465,26.656c-4.697,10.806-12.787,22.406-22.201,31.836
		c-1.835,1.896-4.377,2.94-7.016,2.881c-0.269,0-0.55-0.009-0.834-0.027c0.977,2.047,0.715,3.687-0.777,4.873
		C134.254,142.833,120.832,146.339,111.876,146.339z"/>
</g>
</svg>
