<?xml version="1.0" encoding="utf-8"?>
<!-- Generator: Adobe Illustrator 15.0.0, SVG Export Plug-In . SVG Version: 6.00 Build 0)  -->
<!DOCTYPE svg PUBLIC "-//W3C//DTD SVG 1.1//EN" "http://www.w3.org/Graphics/SVG/1.1/DTD/svg11.dtd">
<svg version="1.1" id="Capa_1" xmlns="http://www.w3.org/2000/svg" xmlns:xlink="http://www.w3.org/1999/xlink" x="0px" y="0px"
	 width="78.502px" height="108px" viewBox="0 0 78.502 108" enable-background="new 0 0 78.502 108" xml:space="preserve">
<g>
	<g id="Group_3" transform="translate(34 47)">
		<path id="Clip_2-2" fill="none" d="M0.74,0.394h43.762V61H0.74V0.394z"/>
		<g>
			<g>
				<defs>
					<rect id="SVGID_1_" x="0.74" y="0.394" width="43.762" height="60.606"/>
				</defs>
				<clipPath id="SVGID_2_">
					<use xlink:href="#SVGID_1_"  overflow="visible"/>
				</clipPath>
				<g id="Group_3-2" clip-path="url(#SVGID_2_)">
					<path id="Fill_1" fill="#004AAD" d="M29.411,61c-0.066,0-0.135-0.005-0.2-0.014c-0.571-0.082-1.048-0.482-1.226-1.032
						l-2.264-6.907c-0.13-0.387-0.101-0.808,0.079-1.173c0.362-0.745,1.261-1.056,2.007-0.692c0.367,0.18,0.646,0.502,0.771,0.894
						l0.8,2.44c0.099,0.313,0.39,0.525,0.718,0.523c0.252,0,0.487-0.129,0.627-0.341l1.961-2.988
						c0.272-0.426,0.744-0.685,1.25-0.685c0.162,0,0.324,0.026,0.479,0.08l2.012,0.681c0.077,0.024,0.157,0.038,0.238,0.039
						c0.212-0.001,0.413-0.091,0.556-0.248c0.201-0.224,0.255-0.544,0.14-0.821l-3.818-9.054c-0.113-0.274-0.378-0.457-0.675-0.466
						h-0.019c-0.291,0-0.558,0.168-0.681,0.433c-0.47,1.349-1.467,2.447-2.765,3.044c-0.344,0.123-0.709,0.186-1.074,0.184
						c-1.188-0.104-2.325-0.514-3.309-1.188c-0.11-0.064-0.238-0.1-0.369-0.1c-0.082,0-0.164,0.014-0.241,0.041
						c-0.203,0.07-0.367,0.226-0.451,0.425l-6.742,15.993c-0.215,0.515-0.694,0.869-1.249,0.926c-0.045,0-0.091,0.005-0.137,0.005
						c-0.508-0.001-0.979-0.259-1.256-0.685l-3.568-5.439c-0.138-0.213-0.374-0.342-0.627-0.342c-0.081,0-0.161,0.014-0.236,0.041
						l-5.15,1.742c-0.155,0.053-0.318,0.078-0.481,0.078c-0.423-0.004-0.826-0.186-1.109-0.5c-0.403-0.447-0.511-1.088-0.276-1.643
						l6.335-15.02c0.092-0.219,0.08-0.469-0.034-0.676c-0.112-0.207-0.315-0.351-0.55-0.386c-1.506-0.228-3.053-0.562-3.975-1.912
						c-0.988-1.444-0.674-3.288-0.4-4.915c0.218-0.826,0.275-1.689,0.167-2.537c-0.349-0.688-0.835-1.299-1.428-1.791
						c-1.173-1.183-2.5-2.521-2.5-4.371s1.311-3.172,2.468-4.342c0.608-0.5,1.107-1.121,1.464-1.822
						c0.107-0.85,0.05-1.711-0.168-2.537c-0.277-1.627-0.592-3.471,0.4-4.916c1.019-1.489,2.809-1.743,4.387-1.968
						c0.767-0.025,1.519-0.218,2.203-0.565c0.536-0.609,0.948-1.319,1.21-2.088c0.686-1.526,1.461-3.255,3.136-3.832
						c0.341-0.12,0.7-0.181,1.062-0.18c1.272,0.127,2.49,0.578,3.539,1.309c0.649,0.47,1.396,0.793,2.183,0.945
						c0.787-0.154,1.53-0.476,2.183-0.945c1.047-0.729,2.262-1.18,3.529-1.309c0.364-0.001,0.727,0.06,1.068,0.181
						c1.673,0.575,2.449,2.3,3.135,3.83c0.259,0.759,0.661,1.462,1.186,2.07c0.69,0.353,1.452,0.551,2.229,0.583
						c1.579,0.226,3.369,0.481,4.389,1.971c0.987,1.438,0.676,3.281,0.4,4.908c-0.219,0.83-0.275,1.692-0.17,2.545
						c0.354,0.692,0.846,1.307,1.445,1.801l0.01,0.01c1.16,1.178,2.477,2.51,2.477,4.35c0,1.838-1.313,3.172-2.47,4.34
						c-0.608,0.502-1.106,1.125-1.464,1.828c-0.104,0.842-0.049,1.693,0.164,2.516c0.279,1.635,0.602,3.486-0.394,4.933
						c-0.922,1.353-2.469,1.687-3.975,1.911c-0.233,0.035-0.437,0.178-0.55,0.385c-0.113,0.209-0.127,0.457-0.033,0.678
						l6.334,15.024c0.234,0.556,0.127,1.193-0.275,1.642c-0.396,0.447-1.021,0.611-1.585,0.42l-5.155-1.742
						c-0.076-0.027-0.156-0.041-0.238-0.041c-0.252,0-0.487,0.129-0.627,0.342l-3.567,5.441C30.392,60.742,29.919,60.999,29.411,61z
						 M11.306,51.025c0.506,0.002,0.978,0.26,1.252,0.686l2.209,3.367c0.139,0.213,0.373,0.343,0.627,0.344c0.023,0,0.047,0,0.068,0
						c0.277-0.025,0.518-0.204,0.625-0.462l4.09-9.694c0.123-0.293,0.055-0.632-0.17-0.854c-0.225-0.224-0.564-0.278-0.848-0.142
						c-0.694,0.381-1.467,0.595-2.258,0.627c-0.361,0.002-0.721-0.06-1.063-0.179c-1.298-0.597-2.296-1.696-2.765-3.046
						c-0.125-0.262-0.39-0.43-0.681-0.432h-0.018c-0.297,0.008-0.563,0.189-0.675,0.465l-3.82,9.051
						c-0.116,0.277-0.063,0.598,0.138,0.821c0.144,0.157,0.346,0.247,0.558,0.248c0.08-0.001,0.159-0.015,0.235-0.039l2.013-0.681
						C10.979,51.053,11.142,51.025,11.306,51.025z M22.621,39.572c1.317,0.121,2.579,0.584,3.663,1.343
						c0.537,0.337,1.107,0.62,1.699,0.847c0.289,0.088,0.604-0.01,0.793-0.244c0.399-0.591,0.736-1.224,1-1.887
						c0.44-1.242,1.17-2.361,2.127-3.27c1.089-0.693,2.338-1.096,3.627-1.168c0.773-0.027,1.531-0.223,2.222-0.57
						c0.16-0.125,0.267-0.307,0.294-0.508c-0.008-0.758-0.104-1.512-0.283-2.247v-0.017c-0.322-1.295-0.348-2.646-0.072-3.951
						c0.482-1.191,1.242-2.252,2.219-3.088l0.037-0.039c0.638-0.523,1.152-1.182,1.51-1.926c0.034-0.134,0.034-0.271,0-0.404
						c-0.367-0.76-0.896-1.428-1.548-1.961c-0.978-0.836-1.738-1.896-2.218-3.088c-0.274-1.306-0.252-2.655,0.069-3.949v-0.021
						c0.229-0.818,0.284-1.678,0.16-2.521c-0.067-0.2-0.219-0.364-0.414-0.449c-0.616-0.178-1.249-0.292-1.888-0.346l-0.086-0.016
						c-1.289-0.072-2.537-0.475-3.625-1.17c-0.949-0.895-1.672-2.001-2.109-3.23c-0.27-0.676-0.611-1.321-1.02-1.923
						c-0.19-0.233-0.502-0.329-0.789-0.244c-0.58,0.22-1.139,0.497-1.665,0.824c-1.097,0.762-2.37,1.232-3.7,1.365
						c-1.313-0.125-2.572-0.586-3.657-1.338l0,0c-0.54-0.338-1.112-0.623-1.709-0.85c-0.069-0.022-0.144-0.033-0.218-0.034
						c-0.225,0-0.438,0.101-0.579,0.274c-0.403,0.594-0.743,1.231-1.008,1.9v0.01c-0.44,1.234-1.165,2.348-2.117,3.246
						c-1.089,0.694-2.337,1.098-3.626,1.17c-0.773,0.029-1.529,0.225-2.221,0.572c-0.16,0.121-0.266,0.301-0.293,0.5
						c0.008,0.758,0.103,1.512,0.281,2.249v0.017c0.323,1.299,0.351,2.652,0.076,3.963c-0.476,1.186-1.229,2.238-2.201,3.068
						l-0.016,0.016c-1.008,1.017-1.474,1.558-1.569,2.039c-0.02,0.106-0.019,0.217,0.005,0.321c0.1,0.435,0.529,0.925,1.521,1.931
						l0.039,0.041l0.006,0.006c0.973,0.836,1.73,1.892,2.215,3.078c0.273,1.308,0.248,2.66-0.074,3.957v0.012
						c-0.232,0.822-0.285,1.687-0.158,2.531c0.07,0.2,0.223,0.362,0.419,0.446c0.614,0.171,1.243,0.284,1.878,0.339l0.091,0.014
						c1.289,0.074,2.538,0.478,3.626,1.17c0.948,0.896,1.67,2.003,2.105,3.23V39.6c0.268,0.674,0.607,1.316,1.016,1.916
						c0.189,0.235,0.502,0.332,0.792,0.246c0.593-0.228,1.161-0.511,1.7-0.846C20.034,40.158,21.3,39.693,22.621,39.572z"/>
				</g>
			</g>
		</g>
	</g>
	<path id="Fill_4" fill="#004AAD" d="M57,83c-7.181,0-13-5.82-13-13s5.819-13,13-13s13,5.82,13,13
		C69.991,77.176,64.177,82.992,57,83z M57,60.059c-5.49,0-9.94,4.451-9.94,9.941s4.45,9.941,9.94,9.941S66.94,75.49,66.94,70
		C66.935,64.512,62.487,60.064,57,60.059z"/>
	<g id="Group_8">
		<path id="Clip_7-2" fill="none" d="M0,0h76.374v91.916H0V0z"/>
		<g>
			<g>
				<defs>
					<rect id="SVGID_3_" width="76.374" height="91.916"/>
				</defs>
				<clipPath id="SVGID_4_">
					<use xlink:href="#SVGID_3_"  overflow="visible"/>
				</clipPath>
				<g id="Group_8-2" clip-path="url(#SVGID_4_)">
					<path id="Fill_6" fill="#004AAD" d="M1.527,91.916c-0.84,0.002-1.523-0.676-1.528-1.516V1.519C0.002,0.678,0.686-0.001,1.527,0
						h73.318c0.842-0.001,1.525,0.678,1.528,1.519v47.857c-0.021,0.844-0.724,1.51-1.565,1.488c-0.813-0.021-1.469-0.675-1.49-1.488
						V3.8c0-0.42-0.342-0.76-0.762-0.76H3.819C3.398,3.039,3.056,3.379,3.054,3.8v84.32c0.001,0.421,0.344,0.761,0.765,0.759l0,0
						h29.78c0.839,0,1.52,0.682,1.52,1.52c0,0.841-0.681,1.521-1.52,1.521L1.527,91.916z"/>
				</g>
			</g>
		</g>
	</g>
	<path id="Fill_9" fill="#004AAD" d="M17.585,85c-0.835-0.002-1.512-0.68-1.512-1.516c-0.001-4.178-3.385-7.565-7.562-7.572
		C7.677,75.91,7.001,75.234,7,74.4V17.6c0.001-0.834,0.677-1.511,1.512-1.512c4.178-0.008,7.561-3.396,7.562-7.574
		c0-0.835,0.676-1.512,1.511-1.514h40.83c0.836,0.001,1.512,0.679,1.514,1.514c0,4.178,3.383,7.566,7.562,7.574
		c0.834,0.002,1.51,0.678,1.511,1.512v27.264c0.021,0.834-0.639,1.529-1.473,1.55c-0.836,0.021-1.528-0.638-1.551-1.473
		c0-0.026,0-0.052,0-0.078V19.645c0-0.36-0.254-0.67-0.605-0.742c-4.163-0.846-7.415-4.103-8.255-8.268
		c-0.072-0.352-0.384-0.604-0.742-0.604h-36.75c-0.359,0-0.669,0.252-0.741,0.604c-0.842,4.163-4.093,7.418-8.255,8.265
		c-0.351,0.074-0.601,0.384-0.6,0.742v52.711c-0.001,0.358,0.25,0.668,0.6,0.742c4.163,0.848,7.415,4.104,8.255,8.27
		c0.072,0.352,0.382,0.604,0.741,0.604H31.2c0.836,0,1.515,0.68,1.515,1.516c0,0.838-0.678,1.516-1.515,1.516H17.585z"/>
	<path id="Fill_11" fill="#004AAD" d="M29.549,26c-0.841,0.012-1.534-0.659-1.549-1.5c0.015-0.841,0.708-1.512,1.549-1.5h20.9
		c0.843-0.014,1.536,0.658,1.551,1.5c-0.015,0.841-0.706,1.512-1.548,1.5H29.549z"/>
	<path id="Fill_13" fill="#004AAD" d="M17.517,37c-0.833,0.003-1.511-0.667-1.517-1.5c0.005-0.833,0.684-1.504,1.517-1.5h40.964
		c0.834-0.004,1.513,0.667,1.519,1.5c-0.006,0.833-0.685,1.504-1.519,1.5H17.517z"/>
	<path id="Fill_15" fill="#004AAD" d="M17.513,47c-0.832,0.002-1.508-0.668-1.513-1.5c0.005-0.832,0.682-1.502,1.513-1.5h24.974
		c0.83-0.002,1.508,0.668,1.513,1.5c-0.005,0.832-0.683,1.502-1.513,1.5H17.513z"/>
	<path id="Fill_17" fill="#004AAD" d="M17.545,56c-0.84,0.012-1.531-0.66-1.545-1.5c0.014-0.84,0.705-1.511,1.545-1.5h13.91
		c0.84-0.012,1.532,0.66,1.545,1.5c-0.014,0.84-0.705,1.512-1.545,1.5H17.545z"/>
	<path id="Fill_19" fill="#004AAD" d="M17.545,64c-0.84,0.012-1.531-0.66-1.545-1.5c0.014-0.84,0.705-1.512,1.545-1.5h13.91
		c0.84-0.012,1.532,0.66,1.545,1.5c-0.014,0.84-0.705,1.512-1.545,1.5H17.545z"/>
</g>
</svg>
